SplineFontDB: 3.0
FontName: VTFCampagnolText-Regular
FullName: VTF Campagnol Text Regular
FamilyName: VTF Campagnol Text
Weight: Regular
Copyright: Velvetyne Type Foundry
Version: 001.001
ItalicAngle: 0
UnderlinePosition: -50
UnderlineWidth: 50
Ascent: 750
Descent: 250
LayerCount: 2
Layer: 0 0 "Arri+AOgA-re"  1
Layer: 1 0 "Avant"  0
XUID: [1021 906 1047366351 12181075]
FSType: 4
OS2Version: 3
OS2_WeightWidthSlopeOnly: 0
OS2_UseTypoMetrics: 1
CreationTime: 1340353620
ModificationTime: 1340545066
PfmFamily: 17
TTFWeight: 400
TTFWidth: 5
LineGap: 0
VLineGap: 0
Panose: 2 0 0 0 0 0 0 0 0 0
OS2TypoAscent: 0
OS2TypoAOffset: 1
OS2TypoDescent: 0
OS2TypoDOffset: 1
OS2TypoLinegap: 200
OS2WinAscent: 0
OS2WinAOffset: 1
OS2WinDescent: 0
OS2WinDOffset: 1
HheadAscent: 0
HheadAOffset: 1
HheadDescent: 0
HheadDOffset: 1
OS2SubXSize: 650
OS2SubYSize: 600
OS2SubXOff: 0
OS2SubYOff: 75
OS2SupXSize: 650
OS2SupYSize: 600
OS2SupXOff: 0
OS2SupYOff: 350
OS2StrikeYSize: 50
OS2StrikeYPos: 300
OS2Vendor: 'VTF '
OS2CodePages: 00000001.00000000
OS2UnicodeRanges: 00000000.00000000.00000000.00000000
DEI: 91125
LangName: 1033 "" "" "" "" "VTFCampagnolText-Regular" "1.000" "" "Please refer to the Copyright section for the font trademark attribution notices." "Velvetyne Type Foundry" "Velvetyne Type Foundry" "" "http://velvetyne.fr" "http://velvetyne.fr" "SIL-OFL" "http://velvetyne.fr" 
Encoding: UnicodeBmp
UnicodeInterp: none
NameList: Adobe Glyph List
DisplaySize: -24
AntiAlias: 1
FitToEm: 1
WinInfo: 50 50 16
BeginPrivate: 4
BlueValues 23 [-20 0 500 520 750 770]
OtherBlues 8 [-250 0]
BlueScale 8 0.039625
ExpansionFactor 4 0.06
EndPrivate
Grid
-1000 970 m 0
 2000 970 l 0
  Named: "accents cap" 
-1000 1254 m 0
 2000 1254 l 0
-1000 550 m 0
 2000 550 l 0
  Named: "accents bas" 
-1000 700 m 0
 2000 700 l 0
-1000 250 m 0
 2000 250 l 0
  Named: "milieu" 
-1000 618 m 0
 2000 618 l 0
  Named: "digit ascenders" 
-1000 -120 m 0
 2000 -120 l 0
  Named: "digit descenders" 
EndSplineSet

StartChar: h
Encoding: 104 104 1
Width: 666
Flags: HMW
HStem: 0 21G<100 100 100 540> 730 20G<100 540 540 540>
VStem: 100 440<0 750 0 750>
LayerCount: 2
Back
SplineSet
206 395 m 29
 209.51 382.13 215 362 215 362 c 4
 331 409 l 4
 381 409 456 369 456 299 c 4
 456 260 456 172.12 456 91 c 29
 393 67 l 29
 393 0 l 29
 621 0 l 29
 621 67 l 29
 595.65 76.3604 553 91 556 91 c 4
 556 312 l 5
 557.314 453.695 425 510 337 500 c 13
 206 395 l 29
116 392 m 29
 116 274.61 116 91 116 91 c 4
 55 67 l 13
 55 0 l 21
 276 0 l 13
 276 26.1299 277 68 276 67 c 4
 216 91 l 4
 216 91 216 276.44 216 395 c 29
 177 501 l 29
 55 501 l 29
 55 436 l 29
 116 392 l 29
EndSplineSet
Fore
SplineSet
116 641 m 1
 116 427 116 91 116 91 c 1
 55 67 l 1
 55 0 l 1
 276 0 l 1
 276 26 277 68 276 67 c 1
 216 91 l 1
 216 362.423 l 1
 326 409 l 1
 376 409 446 369 446 299 c 0
 446 260 446 172 446 91 c 1
 383 67 l 1
 383 0 l 1
 611 0 l 1
 611 67 l 1
 586 76 543 91 546 91 c 1
 546 312 l 2
 546 454.004 420 510 332 500 c 1
 216 403.333 l 1
 216 714 l 1
 177 750 l 1
 55 750 l 1
 55 685 l 1
 116 641 l 1
EndSplineSet
Validated: 524329
EndChar

StartChar: i
Encoding: 105 105 2
Width: 359
Flags: HMW
HStem: 0 21G<100 100 100 278> 480 20G<100 278 278 278>
VStem: 100 178<0 500 0 500>
LayerCount: 2
Back
SplineSet
100 0 m 1
 100 500 l 1
 278 500 l 1
 278 0 l 1
 100 0 l 1
EndSplineSet
Fore
SplineSet
130 392 m 1
 130 275 130 91 130 91 c 1
 69 67 l 1
 69 0 l 1
 290 0 l 1
 290 26 291 68 290 67 c 1
 230 91 l 1
 230 91 230 316 230 460 c 1
 191 500 l 1
 69 500 l 1
 69 436 l 1
 130 392 l 1
245 691 m 1
 245 670 l 1
 177 600 l 1
 156 600 l 1
 87 670 l 1
 87 690 l 1
 156 760 l 1
 176 760 l 1
 245 691 l 1
EndSplineSet
Validated: 41
EndChar

StartChar: a
Encoding: 97 97 3
Width: 563
Flags: HMW
HStem: 0 21G<50.1983 50.1983 50.1983 490.198> 480 20G<50.1983 490.198 490.198 490.198>
VStem: 50 440<0 500 0 500>
LayerCount: 2
Back
SplineSet
440 0 m 5
 440 410 l 5
 200 410 l 5
 200 0 l 5
 100 0 l 5
 100 500 l 5
 540 500 l 5
 540 0 l 5
 440 0 l 5
EndSplineSet
Fore
SplineSet
59 398 m 2
 59 397 247 523 248 522 c 1
 324 522 485 506 480 306 c 1
 480 260 480 195 480 112 c 0
 480 50 515 83 536 90 c 0
 537 90 538 8 538 8 c 1
 521 -4 489 -18 458 -18 c 0
 410 -18 380 4 380 73 c 2
 380 114.907 l 1
 326 38 l 1
 271 4 221 -20 166 -20 c 0
 68 -20 37 36 40 99 c 1
 40 99 196 258 193 261 c 1
 380 285.815 l 1
 380 316 l 2
 380 362 322 424 236 424 c 0
 210 424 186 422 161 414 c 0
 160 414 144 312 144 312 c 1
 61 311 l 1
 59 398 l 2
380 150.549 m 1
 380 223.32 l 1
 146 178 l 1
 142 156 140 152 140 122 c 0
 140 89 156 67 198 67 c 0
 248.386 67 309.295 100.191 380 150.549 c 1
EndSplineSet
Validated: 524321
EndChar

StartChar: c
Encoding: 99 99 4
Width: 550
Flags: HMW
HStem: 0 21G<100 100 100 570> 480 20G<100 570 570 570>
VStem: 100 470<0 500 0 500>
LayerCount: 2
Back
SplineSet
250 504 m 4
 396 554 525 506 483 285 c 5
 359 176 l 5
 165 195 l 29
 167 253 l 29
 260.21 254.17 406 256 406 256 c 4
 430 415 329 474 219 443 c 5
 209 407 201 338 201 248 c 4
 201 139 197 73 314 73 c 5
 362 73 447 90 487 115 c 13
 500 42 l 5
 446.014 -3.31641 362.001 -23.9618 289 -22 c 5
 182 -22 97.1474 23.2525 97.4019 196 c 4
 97.4772 247.123 106.133 309.413 126 385 c 5
 250 504 l 4
EndSplineSet
Fore
SplineSet
390 335 m 1
 381 429 l 1
 336 446 264 456 202 443 c 1
 192 407 184 338 184 248 c 0
 184 139 180 73 297 73 c 0
 345 73 430 90 470 115 c 1
 483 42 l 1
 429 -3 345 -24 272 -22 c 1
 165 -22 80 23 80 196 c 0
 80 247 89 309 109 385 c 1
 233 504 l 1
 315 530 379 530 480 481 c 1
 470 335 l 1
 390 335 l 1
EndSplineSet
Validated: 33
EndChar

StartChar: e
Encoding: 101 101 5
Width: 583
Flags: HMW
HStem: 0 21G<100 100 100 540> 480 20G<100 540 540 540>
VStem: 100 440<0 500 0 500>
LayerCount: 2
Back
SplineSet
440 0 m 1
 440 410 l 1
 200 410 l 1
 200 0 l 1
 100 0 l 1
 100 500 l 1
 540 500 l 1
 540 0 l 1
 440 0 l 1
EndSplineSet
Fore
SplineSet
238 504 m 1
 384 554 513 506 471 285 c 1
 347 176 l 1
 189.4 191.435 l 1
 191.746 116.594 206.912 73 302 73 c 0
 350 73 435 90 475 115 c 1
 488 42 l 1
 434 -3 350 -24 277 -22 c 1
 170 -22 85 23 85 196 c 0
 85 247 94 309 114 385 c 1
 238 504 l 1
189.01 253.382 m 1
 279.754 254.435 394 256 394 256 c 1
 418 415 317 474 207 443 c 1
 197.2 407.721 189.321 340.75 189.01 253.382 c 1
EndSplineSet
Validated: 524321
EndChar

StartChar: b
Encoding: 98 98 6
Width: 630
Flags: HMW
HStem: -250 21G<100 100 100 570> 480 20G<100 570 570 570>
VStem: 100 470<-250 500 -250 500>
LayerCount: 2
Back
SplineSet
260 94 m 9
 249 35 l 25
 249 35 341 0 344 0 c 1
 490.36 81 l 1
 523.845 131.799 540 214 540 312 c 1
 540 466 409 520 321 510 c 9
 190 405 l 25
 193.51 392.13 199 372 199 372 c 0
 315 419 l 0
 365 419 440 382 440 299 c 1
 440 224 424 139 398 90 c 1
 260 94 l 9
100 392 m 25
 100 177.11 100 -159 100 -159 c 0
 39 -183 l 9
 39 -250 l 17
 300 -250 l 9
 300 -223.87 300 -183 300 -183 c 0
 200 -159 l 0
 200 -159 200 178.94 200 395 c 25
 161 501 l 25
 39 501 l 25
 39 436 l 25
 100 392 l 25
EndSplineSet
Fore
SplineSet
39 751 m 1
 39 686 l 1
 100 642 l 1
 100 427 100 8 100 8 c 1
 344 -29 l 1
 490 52 l 1
 520 103 540 204 540 302 c 0
 540 456 409 510 321 500 c 1
 200 403.015 l 1
 200 751 l 1
 39 751 l 1
200 362.405 m 1
 315 409 l 1
 365 409 440 372 440 289 c 0
 440 214 424 110 398 61 c 1
 200 77 l 1
 200 362.405 l 1
EndSplineSet
Validated: 524329
EndChar

StartChar: d
Encoding: 100 100 7
Width: 562
Flags: HMW
HStem: -250 21G<100 100 100 570> 480 20G<100 570 570 570>
VStem: 100 470<-250 500 -250 500>
LayerCount: 2
Back
SplineSet
327 425 m 13
 338 484 l 29
 338 484 246 519 243 519 c 5
 96.6406 438 l 5
 70 383 47 297 47 199 c 5
 47 45 178 -9 266 1 c 13
 397 106 l 29
 393.49 118.87 388 139 388 139 c 4
 272 92 l 4
 222 92 147 129 147 212 c 5
 147 287 163 380 189 429 c 5
 327 425 l 13
487 109 m 29
 487 323.89 487 660 487 660 c 4
 548 684 l 13
 548 751 l 21
 287 751 l 13
 287 724.87 287 684 287 684 c 4
 387 660 l 4
 387 660 387 322.06 387 106 c 29
 426 0 l 29
 548 0 l 29
 548 65 l 29
 487 109 l 29
EndSplineSet
Fore
SplineSet
488 751 m 1
 287 751 l 1
 287 725 287 684 287 684 c 1
 387 660 l 1
 387 128.595 l 1
 272 82 l 1
 222 82 147 119 147 202 c 0
 147 277 163 380 189 429 c 1
 327 425 l 1
 338 484 l 1
 338 484 246 519 243 519 c 1
 97 438 l 1
 70 383 47 287 47 189 c 0
 47 35 178 -19 266 -9 c 1
 392.119 92.0875 l 1
 426 0 l 1
 548 0 l 1
 548 65 l 1
 487 109 l 1
 487 359 488 751 488 751 c 1
EndSplineSet
Validated: 524329
EndChar

StartChar: o
Encoding: 111 111 8
Width: 596
Flags: HMW
HStem: -20 95<200 470 200 570> 425 95<200 200 200 470>
VStem: 100 100<75 425 75 520 75 520> 470 100<75 425 425 425>
LayerCount: 2
Back
SplineSet
570 520 m 1
 570 -20 l 1
 100 -20 l 1
 100 520 l 1
 570 520 l 1
200 425 m 1
 200 75 l 1
 470 75 l 1
 470 425 l 1
 200 425 l 1
EndSplineSet
Fore
SplineSet
211 506 m 1
 321 540 516 503 525 304 c 0
 527 258 527 195 520 145 c 1
 382 -9 l 1
 272 -43 77 -6 68 193 c 0
 66 239 66 302 73 352 c 1
 211 506 l 1
184 417 m 1
 174 381 167 302 167 212 c 0
 167 103 277 39 409 80 c 1
 419 116 426 195 426 285 c 0
 426 394 316 458 184 417 c 1
EndSplineSet
Validated: 33
EndChar

StartChar: p
Encoding: 112 112 9
Width: 619
Flags: HMW
HStem: -250 21G<100 100 100 570> 480 20G<100 570 570 570>
VStem: 100 470<-250 500 -250 500>
LayerCount: 2
Back
SplineSet
190 395 m 29
 193.51 382.13 199 362 199 362 c 4
 315 409 l 4
 365 409 440 369 440 299 c 4
 440 260 440 172.12 440 91 c 29
 377 67 l 29
 377 0 l 29
 605 0 l 29
 605 67 l 29
 579.65 76.3604 537 91 540 91 c 4
 540 312 l 5
 541.314 453.695 409 510 321 500 c 13
 190 395 l 29
100 392 m 29
 100 274.61 100 91 100 91 c 4
 39 67 l 13
 39 0 l 21
 260 0 l 13
 260 26.1299 261 68 260 67 c 4
 200 91 l 4
 200 91 200 276.44 200 395 c 29
 161 501 l 29
 39 501 l 29
 39 436 l 29
 100 392 l 29
100 -250 m 1
 100 500 l 1
 570 500 l 1
 570 -250 l 1
 100 -250 l 1
EndSplineSet
Fore
SplineSet
100 392 m 1
 100 177 100 -159 100 -159 c 1
 39 -183 l 1
 39 -250 l 1
 300 -250 l 1
 300 -224 300 -183 300 -183 c 1
 200 -159 l 1
 200 372.405 l 1
 315 419 l 1
 365 419 440 382 440 299 c 0
 440 224 424 121 398 72 c 1
 260 76 l 1
 249 17 l 1
 249 17 341 -18 344 -18 c 1
 490 63 l 1
 517 118 540 214 540 312 c 0
 540 466 409 520 321 510 c 1
 194.881 408.912 l 1
 161 501 l 1
 39 501 l 1
 39 436 l 1
 100 392 l 1
EndSplineSet
Validated: 524329
EndChar

StartChar: q
Encoding: 113 113 10
Width: 586
Flags: HMW
HStem: -250 21G<100 100 100 570> 480 20G<100 570 570 570>
VStem: 100 470<-250 500 -250 500>
LayerCount: 2
Back
SplineSet
559 -250 m 5
 559 -185 l 5
 509 -141 l 5
 509 73.8896 509 493 509 493 c 5
 265 530 l 5
 118.641 449 l 5
 89 398 69 287 69 189 c 4
 69 35 200 -19 288 -9 c 5
 419 96 l 5
 415.49 108.87 410 129 410 129 c 5
 294 82 l 5
 244 82 169 119 169 202 c 4
 169 277 185 391 211 440 c 5
 409 423.715 l 5
 409 -143 l 5
 309 -179 l 5
 309 -250 l 5
 559 -250 l 5
EndSplineSet
Fore
SplineSet
559 -250 m 1
 559 -185 l 1
 509 -141 l 1
 509 74 509 493 509 493 c 1
 265 530 l 1
 119 449 l 1
 89 398 69 287 69 189 c 0
 69 35 200 -19 288 -9 c 1
 409 87.9847 l 1
 409 -143 l 1
 309 -179 l 1
 309 -250 l 1
 559 -250 l 1
409 128.595 m 1
 294 82 l 1
 244 82 169 119 169 202 c 0
 169 277 185 391 211 440 c 1
 409 424 l 1
 409 128.595 l 1
EndSplineSet
Validated: 524329
EndChar

StartChar: s
Encoding: 115 115 11
Width: 542
Flags: HMW
HStem: 0 21G<100 100 100 570> 480 20G<100 570 570 570>
VStem: 100 470<0 500 0 500>
LayerCount: 2
Back
SplineSet
390 335 m 21
 381 429 l 5
 336 446 264 456 202 443 c 5
 192 407 184 338 184 248 c 4
 184 139 180 73 297 73 c 5
 345 73 430 90 470 115 c 13
 483 42 l 5
 429.014 -3.31641 345.001 -23.9619 272 -22 c 5
 165 -22 80.1475 23.2529 80.4023 196 c 4
 80.4775 247.123 89.1328 309.413 109 385 c 5
 233 504 l 5
 314.54 529.714 379 530 480 481 c 5
 470 335 l 5
 390 335 l 21
EndSplineSet
Fore
SplineSet
373 130 m 0
 373 191 32 219 91 385 c 1
 215 504 l 1
 297 530 361 530 462 481 c 1
 452 335 l 1
 372 335 l 1
 363 429 l 1
 318 446 246 456 184 443 c 1
 90 259 477 320 477 134 c 0
 477 34 399 -22 285 -22 c 1
 212 -24 128 -3 74 42 c 1
 87 115 l 1
 127 90 212 73 260 73 c 0
 342 73 373 87 373 130 c 0
EndSplineSet
Validated: 33
EndChar

StartChar: u
Encoding: 117 117 12
Width: 667
Flags: HMW
HStem: 0 21G<100 200 100 100 440 540 440 440> 410 90<200 440 200 200>
VStem: 100 100<0 410 0 500 0 500> 440 100<0 410 410 410>
LayerCount: 2
Back
SplineSet
198 500 m 25
 23 500 l 25
 23 433 l 25
 52.25 423.64 101 409 98 409 c 0
 98 188 l 1
 96.6855 46.3047 229 -10 317 0 c 9
 448 105 l 25
 444.49 117.87 439 138 439 138 c 0
 323 91 l 0
 273 91 198 131 198 201 c 0
 198 240 198 383.39 198 500 c 25
540 0 m 1
 100 0 l 1
EndSplineSet
Fore
SplineSet
540 500 m 1
 348 500 l 1
 348 474 347 432 348 433 c 1
 438 409 l 1
 438 131.517 l 1
 338 91 l 1
 288 91 213 131 213 201 c 0
 213 240 213 383 213 500 c 1
 38 500 l 1
 38 433 l 1
 67 424 113 409 113 409 c 1
 113 188 l 2
 113 45.9965 244 -10 332 0 c 1
 443.735 89.5588 l 1
 477 0 l 1
 599 0 l 1
 599 64 l 1
 540 108 l 1
 540 261 540 500 540 500 c 1
EndSplineSet
Validated: 524329
EndChar

StartChar: v
Encoding: 118 118 13
Width: 616
Flags: HMW
HStem: 0 21G<80 180 80 80 420 520 420 420> 410 90<180 420 180 180>
VStem: 80 100<0 410 0 500 0 500> 420 100<0 410 410 410>
LayerCount: 2
Back
SplineSet
206 395 m 25
 209.51 382.13 215 362 215 362 c 0
 331 409 l 0
 381 409 456 369 456 299 c 0
 456 260 456 172.12 456 91 c 25
 393 67 l 25
 393 0 l 25
 621 0 l 25
 621 67 l 25
 595.65 76.3604 553 91 556 91 c 0
 556 312 l 1
 557.314 453.695 425 510 337 500 c 9
 206 395 l 25
116 392 m 25
 116 274.61 116 91 116 91 c 0
 55 67 l 9
 55 0 l 17
 276 0 l 9
 276 26.1299 277 68 276 67 c 0
 216 91 l 0
 216 91 216 276.44 216 395 c 25
 177 501 l 25
 55 501 l 25
 55 436 l 25
 116 392 l 25
EndSplineSet
Fore
SplineSet
315 128 m 1
 306 128 l 1
 191 409 l 1
 246 433 l 1
 247 432 246 474 246 500 c 1
 20 500 l 1
 20 433 l 1
 81 409 l 1
 264 0 l 1
 351 0 l 1
 531 409 l 1
 528 409 571 424 596 433 c 1
 596 500 l 1
 358 500 l 1
 358 433 l 1
 421 409 l 1
 315 128 l 1
EndSplineSet
Validated: 41
EndChar

StartChar: m
Encoding: 109 109 14
Width: 985
Flags: HMW
HStem: 0 21G<100 100 100 875> 480 20G<100 875 875 875>
VStem: 100 775<0 500 0 500>
LayerCount: 2
Back
SplineSet
206 395 m 29
 209.51 382.13 215 362 215 362 c 4
 331 409 l 4
 381 409 456 369 456 299 c 4
 456 260 456 172.12 456 91 c 29
 393 67 l 29
 393 0 l 29
 621 0 l 29
 621 67 l 29
 595.65 76.3604 553 91 556 91 c 4
 556 312 l 5
 557.314 453.695 425 510 337 500 c 13
 206 395 l 29
116 392 m 29
 116 274.61 116 91 116 91 c 4
 55 67 l 13
 55 0 l 21
 276 0 l 13
 276 26.1299 277 68 276 67 c 4
 216 91 l 4
 216 91 216 276.44 216 395 c 29
 177 501 l 29
 55 501 l 29
 55 436 l 29
 116 392 l 29
EndSplineSet
Fore
SplineSet
116 392 m 1
 116 275 116 91 116 91 c 1
 55 67 l 1
 55 0 l 1
 276 0 l 1
 276 26 277 68 276 67 c 1
 216 91 l 1
 216 368.324 l 1
 321 409 l 1
 371 409 441 369 441 299 c 0
 441 260 441 172 441 91 c 1
 378 67 l 1
 378 0 l 1
 606 0 l 1
 606 67 l 1
 581 76 538 91 541 91 c 1
 541 312 l 2
 541 331.675 538.581 349.699 534.18 366.125 c 1
 640 409 l 1
 690 409 765 369 765 299 c 0
 765 260 765 172 765 91 c 1
 702 67 l 1
 702 0 l 1
 930 0 l 1
 930 67 l 1
 905 76 862 91 865 91 c 1
 865 312 l 2
 865 454.004 734 510 646 500 c 1
 521.298 400.048 l 1
 482.41 477.183 393.767 507.587 327 500 c 1
 212.224 405.264 l 1
 177 501 l 1
 55 501 l 1
 55 436 l 1
 116 392 l 1
EndSplineSet
Validated: 524329
EndChar

StartChar: w
Encoding: 119 119 15
Width: 934
Flags: HMW
HStem: 0 21G<80 180 80 80 420 520 420 420> 410 90<180 420 180 180>
VStem: 80 100<0 410 0 500 0 500> 420 100<0 410 410 410>
LayerCount: 2
Back
SplineSet
100 0 m 1
 100 500 l 1
 875 500 l 1
 875 0 l 1
 100 0 l 1
EndSplineSet
Fore
SplineSet
295 138 m 1
 286 138 l 1
 191 409 l 1
 246 433 l 1
 247 432 246 474 246 500 c 1
 20 500 l 1
 20 433 l 1
 81 409 l 1
 244 0 l 1
 331 0 l 1
 458 368 l 1
 467 368 l 1
 602 0 l 1
 689 0 l 1
 849 409 l 1
 846 409 889 424 914 433 c 1
 914 500 l 1
 676 500 l 1
 676 433 l 1
 739 409 l 1
 653 138 l 1
 644 138 l 1
 518 500 l 1
 516 500 l 1
 408 500 l 1
 295 138 l 1
EndSplineSet
Validated: 41
EndChar

StartChar: x
Encoding: 120 120 16
Width: 596
Flags: HMW
HStem: 0 21G<80 180 80 80 420 520 420 420> 410 90<180 420 180 180>
VStem: 80 100<0 410 0 500 0 500> 420 100<0 410 410 410>
LayerCount: 2
Back
SplineSet
305 308 m 1
 296 308 l 1
 191 409 l 1
 246 433 l 1
 247 432 246 473.87 246 500 c 1
 20 500 l 1
 20 433 l 1
 81 409 l 1
 237.216 250 l 1
 81 91 l 1
 20 67 l 1
 20 0 l 1
 246 0 l 1
 246 26.1299 247 68 246 67 c 1
 191 91 l 1
 296 192 l 1
 305 192 l 1
 401 91 l 1
 338 67 l 1
 338 0 l 1
 576 0 l 1
 576 67 l 1
 550.65 76.3604 508 91 511 91 c 1
 357.181 250 l 1
 511 409 l 1
 508 409 550.65 423.64 576 433 c 1
 576 500 l 1
 338 500 l 1
 338 433 l 1
 401 409 l 1
 305 308 l 1
EndSplineSet
Fore
SplineSet
316 314 m 1
 302 314 l 1
 211 411 l 1
 256 433 l 1
 257 432 256 474 256 500 c 1
 20 500 l 1
 20 433 l 1
 81 409 l 1
 237 250 l 1
 81 91 l 1
 20 67 l 1
 20 0 l 1
 246 0 l 1
 246 26 247 68 246 67 c 1
 186 91 l 1
 291 192 l 1
 305 192 l 1
 401 91 l 1
 338 67 l 1
 338 0 l 1
 576 0 l 1
 576 67 l 1
 551 76 523 85 526 85 c 1
 362 255 l 1
 511 409 l 1
 508 409 551 424 576 433 c 1
 576 500 l 1
 338 500 l 1
 338 433 l 1
 406 409 l 1
 316 314 l 1
EndSplineSet
Validated: 41
EndChar

StartChar: H
Encoding: 72 72 17
Width: 886
Flags: HMW
HStem: 0 21G<59 285> 0 21G<59 285> 655 95<-91 120 225 436>
VStem: 120 105<91 654>
LayerCount: 2
Back
SplineSet
100 0 m 1
 100 750 l 1
 700 750 l 1
 700 0 l 1
 100 0 l 1
EndSplineSet
Fore
SplineSet
161 658 m 1x70
 161 91 l 1
 100 67 l 1
 100 0 l 1xb0
 326 0 l 1
 326 67 l 1
 266 91 l 1
 266 332 l 1
 621 332 l 1
 621 91 l 1
 560 67 l 1
 560 0 l 1
 786 0 l 1
 786 67 l 1
 726 91 l 1
 726 658 l 1
 786 682 l 1
 786 749 l 1
 560 749 l 1
 560 682 l 1
 621 658 l 1
 621 428 l 1
 266 428 l 1
 266 658 l 1
 326 682 l 1
 326 749 l 1
 100 749 l 1
 100 682 l 1
 161 658 l 1x70
EndSplineSet
Validated: 9
EndChar

StartChar: O
Encoding: 79 79 18
Width: 728
Flags: HMW
VStem: 61 109<220.017 529.517> 562 103<229.483 538.983>
LayerCount: 2
Back
SplineSet
161 658 m 5
 161 90 l 5
 100 66 l 13
 100 -1 l 21
 326 -1 l 13
 326 66 l 5
 266 90 l 5
 266 658 l 20
 326 682 l 4
 326 750 l 21
 100 750 l 13
 100 682 l 21
 161 658 l 5
195 660 m 5
 180 600 170 469 170 319 c 4
 170 137 336 31 536 99 c 5
 551 159 562 291 562 441 c 4
 562 623 395 728 195 660 c 5
250 762 m 5
 396 812 652 758 665 462 c 4
 668 394 668 300 659 226 c 5
 476 -3 l 4
 330 -53 74 1 61 297 c 4
 58 365 58 459 67 533 c 5
 250 762 l 5
EndSplineSet
Fore
SplineSet
250 762 m 1
 396 812 651.971 757.999 665 462 c 0
 667.993 394 668 300 659 226 c 1
 476 -3 l 1
 330 -53 74.0294 1.00129 61 297 c 0
 58.0067 365 58 459 67 533 c 1
 250 762 l 1
195 660 m 1
 180 600 170 469 170 319 c 0
 170 137 336 31 536 99 c 1
 551 159 562 291 562 441 c 0
 562 623 395 728 195 660 c 1
EndSplineSet
Validated: 524321
EndChar

StartChar: acute
Encoding: 180 180 19
AltUni2: 000301.ffffffff.0 0002ca.ffffffff.0
Width: 618
Flags: HMW
HStem: 550 150<319 514 319 514>
VStem: 319 195<550 700 550 700>
LayerCount: 2
Fore
SplineSet
400.608 646.763 m 1
 386.394 636.267 l 1
 169.896 551.021 l 1
 159.399 565.234 l 1
 303.781 747.079 l 1
 317.995 757.575 l 1
 402.82 745.587 l 1
 413.316 731.373 l 1
 400.608 646.763 l 1
EndSplineSet
Validated: 524289
EndChar

StartChar: A
Encoding: 65 65 21
Width: 783
Flags: HMW
HStem: 0 21G<100 100 100 700> 730 20G<100 700 700 700>
VStem: 100 600<0 750 0 750>
LayerCount: 2
Back
SplineSet
403 611 m 4
 394 611 l 5
 194 89 l 5
 246 65 l 5
 247 66 246 24.1299 246 -2 c 5
 20 -2 l 5
 20 65 l 5
 81 89 l 5
 352 749 l 5
 439 749 l 5
 694 91 l 5
 691 91 733.65 76.3604 759 67 c 5
 759 0 l 5
 521 0 l 5
 521 67 l 5
 582 89 l 5
 403 611 l 4
EndSplineSet
Fore
SplineSet
378 613 m 1
 387 613 l 1
 504.672 298 l 1
 267.178 298 l 1
 378 613 l 1
305.048 657.341 m 1
 82 92 l 1
 85 92 42 77 17 68 c 1
 17 1 l 1
 255 1 l 1
 255 68 l 1
 194 90 l 1
 233.403 202 l 1
 540.534 202 l 1
 582 91 l 1
 530 67 l 1
 530 67 530 63 530 56 c 0
 530 42 530 17 530 0 c 1
 756 0 l 1
 756 67 l 1
 695 91 l 1
 429 751 l 1
 423 751 l 1
 342 751 l 1
 239 751 l 1
 239 681 l 1
 305.048 657.341 l 1
EndSplineSet
Validated: 524329
EndChar

StartChar: n
Encoding: 110 110 24
Width: 676
Flags: HMW
HStem: 0 21G<100 200 100 100 440 540 440 440> 410 90<200 440 200 200>
VStem: 100 100<0 410 0 500 0 500> 440 100<0 410 410 410>
LayerCount: 2
Back
SplineSet
440 0 m 5
 440 410 l 5
 200 410 l 5
 200 0 l 5
 100 0 l 5
 100 500 l 5
 540 500 l 5
 540 0 l 5
 440 0 l 5
EndSplineSet
Fore
SplineSet
116 392 m 1
 116 275 116 91 116 91 c 1
 55 67 l 1
 55 0 l 1
 276 0 l 1
 276 26 277 68 276 67 c 1
 216 91 l 1
 216 362.405 l 1
 331 409 l 1
 381 409 456 369 456 299 c 0
 456 260 456 172 456 91 c 1
 393 67 l 1
 393 0 l 1
 621 0 l 1
 621 67 l 1
 596 76 553 91 556 91 c 1
 556 312 l 2
 556 454.004 425 510 337 500 c 1
 213.723 401.19 l 1
 177 501 l 1
 55 501 l 1
 55 436 l 1
 116 392 l 1
EndSplineSet
Validated: 524329
EndChar

StartChar: l
Encoding: 108 108 25
Width: 371
Flags: W
LayerCount: 2
Fore
SplineSet
136 660 m 1
 136 438 136 91 136 91 c 1
 75 67 l 1
 75 0 l 1
 296 0 l 1
 296 26 297 68 296 67 c 1
 236 91 l 1
 236 91 236 494 236 751 c 1
 197 750 l 1
 75 750 l 1
 75 686 l 1
 136 660 l 1
EndSplineSet
Validated: 41
EndChar

StartChar: g
Encoding: 103 103 26
Width: 633
Flags: W
HStem: -20 87<178.515 420.376> 420.047 99.9528<542 607>
VStem: 70 98<-154.453 -74.9745 255.773 352.96> 426 99<310.887 405.253> 474 98<-97.4414 -37.473>
LayerCount: 2
Back
SplineSet
184 417 m 5
 174 381 167 302 167 212 c 4
 167 103 277 39 409 80 c 5
 419 116 426 195 426 285 c 4
 426 394 316 458 184 417 c 5
211 506 m 5
 321 540 515.49 503.311 524.951 304 c 4
 527.141 257.871 527 195 520 145 c 5
 382 -9 l 4
 272 -43 77.5098 -6.31055 68.0488 193 c 4
 65.8594 239.129 66 302 73 352 c 5
 211 506 l 5
EndSplineSet
Fore
SplineSet
227 513 m 1xe8
 304.906 537.08 421.937 533.572 483.596 472.28 c 1
 542 520 l 1
 642 521 l 1
 607 416 l 1
 516.343 420.047 l 1
 521.929 403.867 525 385.577 525 365 c 0xf0
 525 350 524 336 519 319 c 1
 364 151 l 1
 312.558 135.1 244.495 131.228 186.608 147.771 c 1
 172 67 l 1
 467 75 572 64 572 -59 c 0
 572 -68 571 -79 567 -90 c 1
 415 -234 l 1
 257 -264 70 -262 70 -125 c 0
 70 -109 72 -100 75 -81 c 1
 148 -20 l 1
 108 -20 79 25 79 68 c 1
 148.533 162.565 l 1
 101.528 186.532 68 228.918 68 296 c 0
 68 311 71 328 73 343 c 1
 227 513 l 1xe8
184 417 m 1
 174.082 381 167 346 167 311 c 0
 167 224 277 206 409 247 c 1
 422 284 426 318 426 350 c 0
 426 437 316 458 184 417 c 1
185 -20 m 1
 175 -51 168 -79 168 -112 c 0
 168 -187 278 -183 457 -150 c 1
 469 -127 474 -117 474 -72 c 0xe8
 474 -10 365 -20 185 -20 c 1
EndSplineSet
Validated: 524321
EndChar

StartChar: r
Encoding: 114 114 27
Width: 466
Flags: W
VStem: 336 76<321 372.333>
LayerCount: 2
Fore
SplineSet
116 392 m 1
 116 275 116 91 116 91 c 1
 55 67 l 1
 55 0 l 1
 276 0 l 1
 276 26 277 68 276 67 c 1
 216 91 l 1
 216 362.49 l 1
 311 409 l 1
 324 409 l 1
 336 321 l 1
 412 320 l 1
 412 320 417 430 420 500 c 1
 312 500 l 1
 213.329 402.26 l 1
 177 501 l 1
 55 501 l 1
 55 436 l 1
 116 392 l 1
EndSplineSet
Validated: 524329
EndChar

StartChar: k
Encoding: 107 107 28
Width: 666
Flags: W
LayerCount: 2
Back
SplineSet
206 395 m 25
 209.51 382.13 215 362 215 362 c 0
 326 409 l 0
 376 409 446 369 446 299 c 0
 446 260 446 172.12 446 91 c 25
 383 67 l 25
 383 0 l 25
 611 0 l 25
 611 67 l 25
 585.65 76.3604 543 91 546 91 c 0
 546 312 l 1
 547.314 453.695 420 510 332 500 c 9
 206 395 l 25
EndSplineSet
Fore
SplineSet
116 660 m 1
 116 438 116 91 116 91 c 1
 55 67 l 1
 55 0 l 1
 276 0 l 1
 276 26 276 67 276 67 c 1
 216 91 l 1
 216 172.962 l 1
 305.648 243.159 l 1
 426 91 l 1
 363 67 l 1
 363 0 l 1
 611 0 l 1
 611 67 l 1
 586 76 546 91 546 91 c 1
 375.339 297.728 l 1
 520 411 l 1
 520 411 560 426 585 435 c 1
 585 502 l 1
 347 502 l 1
 347 435 l 1
 410 411 l 1
 216 252.866 l 1
 216 751 l 1
 177 750 l 1
 47 750 l 1
 47 685 l 1
 116 660 l 1
EndSplineSet
Validated: 524297
EndChar

StartChar: K
Encoding: 75 75 29
Width: 744
Flags: W
HStem: 0 67<280.76 304> 683 67<280.76 304>
LayerCount: 2
Fore
SplineSet
521 91 m 1
 458 67 l 1
 458 0 l 1
 724 0 l 1
 724 67 l 1
 699 76 659 91 659 91 c 1
 368 381 l 1
 368 386 l 1
 647 659 l 1
 712 683 l 1
 712 750 l 1
 454 750 l 1
 454 683 l 1
 517 659 l 1
 260 404 l 1
 260 352 l 1
 521 91 l 1
54 0 m 1
 305 0 l 1
 304 67 l 1
 221 92 l 1
 221 658 l 1
 304 683 l 1
 305 750 l 1
 54 750 l 1
 55 683 l 1
 116 659 l 1
 116 659 116 313 116 91 c 1
 55 67 l 1
 54 0 l 1
EndSplineSet
Validated: 9
EndChar

StartChar: j
Encoding: 106 106 30
Width: 359
Flags: W
HStem: -250 21G<53.7826 98.8148> 480 20G<69 210.5> 740 20G<136.286 196>
VStem: 130 100<-98 392>
LayerCount: 2
Fore
SplineSet
230 -142 m 1
 69 -250 l 1
 34 -204 l 1
 130 -98 l 1
 130 -98 130 201 130 392 c 1
 69 436 l 1
 69 500 l 1
 191 500 l 1
 230 460 l 1
 230 225 230 -142 230 -142 c 1
245 691 m 1
 245 670 l 1
 177 600 l 1
 156 600 l 1
 87 670 l 1
 87 690 l 1
 156 760 l 1
 176 760 l 1
 245 691 l 1
EndSplineSet
Validated: 1
EndChar

StartChar: t
Encoding: 116 116 31
Width: 446
Flags: W
HStem: -22 95<217.406 344.838> 415 86<202 388>
VStem: 97 104<90.1853 413>
LayerCount: 2
Back
SplineSet
250 504 m 4
 396 554 525 506 483 285 c 5
 359 176 l 5
 165 195 l 29
 167 253 l 29
 260.21 254.17 406 256 406 256 c 4
 430 415 329 474 219 443 c 5
 209 407 201 338 201 248 c 4
 201 139 197 73 314 73 c 5
 362 73 447 90 487 115 c 13
 500 42 l 5
 446.014 -3.31641 362.001 -23.9618 289 -22 c 5
 182 -22 97.1474 23.2525 97.4019 196 c 4
 97.4772 247.123 106.133 309.413 126 385 c 5
 250 504 l 4
EndSplineSet
Fore
SplineSet
200 638 m 1
 200 501 l 1
 401 501 l 1
 388 415 l 1
 202 415 l 1
 201 208 l 1
 202 118 200 75 274 73 c 1
 322 73 367 90 407 115 c 1
 420 42 l 1
 379 7 300 -22 249 -22 c 0
 162 -22 96 23 97 156 c 0
 98 207 97 338 97 413 c 1
 40 413 l 1
 40 464 l 1
 143 639 l 1
 200 638 l 1
EndSplineSet
Validated: 33
EndChar

StartChar: y
Encoding: 121 121 32
Width: 616
VWidth: 0
Flags: W
HStem: -250 21G<106 342> 433 67<535.647 596>
LayerCount: 2
Back
SplineSet
315 128 m 4
 306 128 l 5
 191 409 l 5
 246 433 l 5
 247 432 246 473.87 246 500 c 5
 20 500 l 5
 20 433 l 5
 81 409 l 5
 264 0 l 5
 351 0 l 5
 531 409 l 5
 528 409 570.65 423.64 596 433 c 5
 596 500 l 5
 358 500 l 5
 358 433 l 5
 421 409 l 5
 315 128 l 4
EndSplineSet
Fore
SplineSet
287 -159 m 1
 342 -183 l 1
 343 -182 342 -224 342 -250 c 1
 106 -250 l 1
 106 -183 l 1
 177 -159 l 1
 269 34 l 1
 253 34 l 1
 81 409 l 1
 20 433 l 1
 20 500 l 1
 246 500 l 1
 246 474 247 432 246 433 c 1
 191 409 l 1
 311 128 l 1
 320 128 l 1
 421 409 l 1
 358 433 l 1
 358 500 l 1
 596 500 l 1
 596 433 l 1
 571 424 528 409 531 409 c 1
 287 -159 l 1
EndSplineSet
Validated: 33
EndChar

StartChar: f
Encoding: 102 102 33
Width: 408
Flags: W
HStem: 0 67<263.75 290> 416 86<40 97 202 362>
VStem: 100 100<91 416 504 622.547> 407 80<583 656.111>
LayerCount: 2
Back
SplineSet
100 91 m 1
 39 67 l 9
 39 0 l 17
 290 0 l 9
 290 0 291 68 290 67 c 1
 200 91 l 1
 200 416 l 1
 362 416 l 1
 378 502 l 1
 202 502 l 1
 201 542 l 0
 202 632 200 675 274 677 c 1
 322 677 367 660 407 635 c 9
 420 708 l 1
 379 743 300 772 249 772 c 1
 162 772 96 727 97.4023 594 c 0
 97.9414 542.88 97 579 97 504 c 1
 40 504 l 0
 16 416 l 1
 100 416 l 1
 100 91 l 1
647 638 m 1
 647 501 l 1
 848 501 l 1
 835 415 l 1
 649 415 l 1
 648 208 l 0
 649 118 647 75 721 73 c 1
 769 73 807 94 854 115 c 9
 867 42 l 1
 826 7 747 -22 696 -22 c 1
 609 -22 543 23 544.402 156 c 0
 544.941 207.12 544 338 544 413 c 1
 487 413 l 0
 487 464 l 1
 590 639 l 1
 647 638 l 1
EndSplineSet
Fore
SplineSet
202 502 m 1
 378 502 l 1
 362 416 l 1
 200 416 l 1
 200 91 l 1
 290 67 l 1
 291 68 290 0 290 0 c 1
 39 0 l 1
 39 67 l 1
 100 91 l 1
 100 416 l 1
 26 416 l 1
 40 504 l 1
 97 504 l 1
 97 548 111 597 126 633 c 1
 250 752 l 1
 332 778 396 778 497 729 c 1
 487 583 l 1
 407 583 l 1
 398 677 l 1
 353 694 281 704 219 691 c 1
 209 655 202 592 202 502 c 1
EndSplineSet
Validated: 33
EndChar

StartChar: G
Encoding: 71 71 34
Width: 682
Flags: W
HStem: -22 119<250.88 450.808> 266 96<412 509> 686 85<278.984 461.787>
VStem: 60 112<189.487 491.345> 499 95<539 602> 508.269 102.731<150 266>
LayerCount: 2
Back
SplineSet
499 519 m 21
 486 656 l 5
 444 673 378 686 313 686 c 4
 283 686 253 683 226 677 c 5
 212 624 172 503 172 372 c 4
 172 188 196 97 356 97 c 5
 422 97 539 121 594 158 c 13
 611 71 l 5
 540 8 432 -22 335 -22 c 4
 331 -22 326 -22 322 -22 c 5
 176 -22 60 44 60 295 c 4
 60 371 72 461 99 572 c 5
 269 746 l 5
 316 762 359 771 403 771 c 4
 464 771 527 753 607 712 c 5
 594 519 l 5
 499 519 l 21
EndSplineSet
Fore
SplineSet
499 539 m 1xf8
 486 656 l 1
 444 673 378 686 313 686 c 0
 283 686 253 683 226 677 c 1
 212 624 172 503 172 372 c 0
 172 188 196 97 356 97 c 0
 396.313 97 455.653 105.954 508.269 121.355 c 1
 509 266 l 1
 454.01 266 368 266 368 266 c 1
 412 362 l 1
 611.367 362 l 1
 612.367 266 l 1
 611 150 l 1xf4
 448 -8 l 1
 414 -18 376 -21 338 -22 c 1
 190 -22 60 43.7139 60 295 c 0
 60 371 72 461 99 572 c 1
 269 746 l 1
 316 762 359 771 403 771 c 0
 464 771 527 753 607 712 c 1
 594 539 l 1
 499 539 l 1xf8
EndSplineSet
Validated: 524289
EndChar

StartChar: z
Encoding: 122 122 35
Width: 531
Flags: W
HStem: 433 67<433.257 485>
LayerCount: 2
Back
SplineSet
315 128 m 4
 306 128 l 5
 191 409 l 5
 246 433 l 5
 247 432 246 473.87 246 500 c 5
 20 500 l 5
 20 433 l 5
 81 409 l 5
 264 0 l 5
 351 0 l 5
 531 409 l 5
 528 409 570.65 423.64 596 433 c 5
 596 500 l 5
 358 500 l 5
 358 433 l 5
 421 409 l 5
 315 128 l 4
EndSplineSet
Fore
SplineSet
39 64 m 1
 40 63 39 0 39 0 c 1
 477 0 l 1
 487 150 l 1
 411 157 l 1
 385 81 l 1
 195 81 l 1
 195 92 l 1
 430 409 l 1
 427 409 460 424 485 433 c 1
 485 500 l 1
 65 500 l 1
 51 340 l 1
 127 325 l 1
 151 420 l 1
 331 420 l 1
 330 410 l 1
 89 92 l 1
 39 64 l 1
EndSplineSet
Validated: 41
EndChar

StartChar: T
Encoding: 84 84 36
Width: 752
Flags: W
HStem: 0 67<242 265.625 484.667 508> 655 95<112 323 428 639>
VStem: 323 105<91 654>
LayerCount: 2
Back
SplineSet
445 0 m 5
 445 655 l 5
 205 655 l 5
 205 0 l 5
 100 0 l 5
 100 750 l 5
 550 750 l 5
 550 0 l 5
 445 0 l 5
EndSplineSet
Fore
SplineSet
723 750 m 1
 741 560 l 1
 665 551 l 1
 639 655 l 1
 428 654 l 1
 428 434 428 91 428 91 c 1
 508 67 l 1
 509 68 508 26 508 0 c 1
 242 0 l 1
 242 67 l 1
 323 91 l 1
 323 91 323 434 323 654 c 1
 112 655 l 1
 86 551 l 1
 10 560 l 1
 28 750 l 1
 723 750 l 1
EndSplineSet
Validated: 33
EndChar

StartChar: I
Encoding: 73 73 37
Width: 426
Flags: W
VStem: 100 226
LayerCount: 2
Fore
SplineSet
161 658 m 1
 161 90 l 1
 100 66 l 1
 100 -1 l 1
 326 -1 l 1
 326 66 l 1
 266 90 l 1
 266 658 l 1
 326 682 l 1
 326 750 l 1
 100 750 l 1
 100 682 l 1
 161 658 l 1
EndSplineSet
Validated: 9
EndChar

StartChar: E
Encoding: 69 69 38
Width: 806
Flags: W
LayerCount: 2
Fore
SplineSet
101 750 m 1
 101 683 l 1
 162 659 l 1
 162 437 162 91 162 91 c 1
 101 67 l 1
 100 0 l 1
 684 -1 l 1
 702 190 l 1
 626 199 l 1
 600 95 l 1
 267 95 l 1
 267 342 l 1
 515 342 l 1
 531 438 l 1
 267 438 l 1
 267 654 l 1
 580 655 l 1
 606 551 l 1
 682 560 l 1
 664 750 l 1
 101 750 l 1
EndSplineSet
Validated: 9
EndChar

StartChar: F
Encoding: 70 70 39
Width: 746
Flags: W
HStem: 0 67<326.76 350>
LayerCount: 2
Fore
SplineSet
267 418 m 1
 267 654 l 1
 560 655 l 1
 586 551 l 1
 662 560 l 1
 644 750 l 1
 101 750 l 1
 101 683 l 1
 162 659 l 1
 162 437 162 91 162 91 c 1
 101 67 l 1
 100 0 l 1
 351 0 l 1
 350 67 l 1
 267 92 l 1
 267 322 l 1
 495 322 l 1
 511 418 l 1
 267 418 l 1
EndSplineSet
Validated: 9
EndChar

StartChar: L
Encoding: 76 76 40
Width: 746
Flags: W
HStem: 0 96<267 560> 683 67<326.76 350>
VStem: 162 105<96 658>
LayerCount: 2
Fore
SplineSet
267 658 m 1
 267 96 l 1
 560 95 l 1
 586 199 l 1
 662 190 l 1
 644 0 l 1
 101 0 l 1
 101 67 l 1
 162 91 l 1
 162 313 162 659 162 659 c 1
 101 683 l 1
 100 750 l 1
 351 750 l 1
 350 683 l 1
 267 658 l 1
EndSplineSet
Validated: 1
EndChar

StartChar: period
Encoding: 46 46 41
Width: 333
Flags: W
HStem: -5.51758 159.518<156.312 176>
VStem: 87 158.312<64.4824 84>
LayerCount: 2
Fore
SplineSet
245.312 84.7217 m 1
 245.312 64.4824 l 1
 176.551 -5.51758 l 1
 156.312 -5.51758 l 1
 87 63.7607 l 1
 87 84 l 1
 155.761 154 l 1
 176 154 l 1
 245.312 84.7217 l 1
EndSplineSet
Validated: 524289
EndChar

StartChar: V
Encoding: 86 86 42
Width: 779
Flags: W
HStem: 684 67<703.644 759>
LayerCount: 2
Back
SplineSet
315 128 m 4
 306 128 l 5
 103 660 l 5
 158 684 l 5
 159 683 158 724.87 158 751 c 5
 -68 751 l 5
 -68 684 l 5
 -7 660 l 5
 264 0 l 5
 351 0 l 5
 606 658 l 5
 603 658 645.65 672.64 671 682 c 5
 671 749 l 5
 433 749 l 5
 433 682 l 5
 496 658 l 5
 315 128 l 4
EndSplineSet
Fore
SplineSet
399 138 m 1
 390 138 l 1
 194 660 l 1
 246 684 l 1
 247 683 246 725 246 751 c 1
 20 751 l 1
 20 684 l 1
 81 660 l 1
 348 0 l 1
 435 0 l 1
 694 658 l 1
 691 658 734 673 759 682 c 1
 759 749 l 1
 521 749 l 1
 521 682 l 1
 582 660 l 1
 399 138 l 1
EndSplineSet
Validated: 41
EndChar

StartChar: Z
Encoding: 90 90 43
Width: 650
Flags: W
HStem: 683 67<562.257 614>
LayerCount: 2
Back
SplineSet
39 64 m 5
 40 63 39 -26.1299 39 0 c 5
 477 0 l 5
 487 150 l 5
 411 157 l 5
 385 81 l 5
 195 81 l 5
 195 92 l 5
 430 409 l 5
 427 409 459.65 423.64 485 433 c 5
 485 500 l 5
 65 500 l 5
 51 340 l 5
 127 325 l 5
 151 420 l 5
 331 420 l 5
 330 410 l 5
 89 92 l 4
 39 64 l 5
EndSplineSet
Fore
SplineSet
39 64 m 1
 40 63 39 0 39 0 c 1
 606 0 l 1
 616 150 l 1
 540 157 l 1
 514 81 l 1
 212 81 l 1
 212 92 l 1
 559 659 l 1
 556 659 589 674 614 683 c 1
 614 750 l 1
 64 750 l 1
 50 590 l 1
 126 575 l 1
 150 670 l 1
 443 670 l 1
 442 660 l 1
 89 92 l 1
 39 64 l 1
EndSplineSet
Validated: 41
EndChar

StartChar: W
Encoding: 87 87 44
Width: 1190
Flags: W
HStem: 682 69<1109.65 1170>
LayerCount: 2
Back
SplineSet
393 138 m 5
 384 138 l 5
 194 660 l 5
 246 684 l 5
 247 683 246 724.87 246 751 c 5
 20 751 l 5
 20 684 l 5
 81 660 l 5
 342 0 l 5
 429 0 l 5
 620.018 558.703 l 5
 823 0 l 5
 910 0 l 5
 1155 658 l 5
 1152 658 1194.65 672.64 1220 682 c 5
 1220 751 l 5
 982 751 l 5
 982 682 l 5
 1043 660 l 5
 874 138 l 5
 865 138 l 5
 675.428 658.882 l 5
 683.142 662.182 717.369 674.013 739 682 c 5
 739 749 l 5
 727 749 l 5
 501 749 l 5
 501 684 l 5
 501 682 l 5
 562 660 l 5
 393 138 l 5
EndSplineSet
Fore
SplineSet
471 750 m 1
 471 682 l 1
 532 660 l 1
 383 138 l 1
 374 138 l 1
 204 660 l 1
 256 684 l 1
 257 683 256 725 256 751 c 1
 20 751 l 1
 20 684 l 1
 81 660 l 1
 287.713 93.8973 l 1
 221 70 l 1
 221 0 l 1
 322 0 l 1
 424 0 l 1
 595 559 l 1
 778 0 l 1
 885 0 l 1
 986 0 l 1
 986 70 l 1
 917.118 96.0633 l 1
 1105 658 l 1
 1102 658 1145 673 1170 682 c 1
 1170 751 l 1
 932 751 l 1
 932 682 l 1
 993 660 l 1
 844 138 l 1
 835 138 l 1
 665 659 l 1
 673 662 707 674 729 682 c 1
 729 750 l 1
 471 750 l 1
EndSplineSet
Validated: 524329
EndChar

StartChar: M
Encoding: 77 77 45
Width: 990
Flags: W
HStem: 0 69<100 160.353>
LayerCount: 2
Back
SplineSet
896 656 m 21
 963 680 l 5
 963 750 l 5
 760 750 l 13
 896 656 l 21
272 652.5 m 13
 406 750 l 21
 198 750 l 5
 198 680 l 5
 272 652.5 l 13
713 0 m 5
 713 68 l 5
 652 90 l 5
 801 612 l 5
 810 612 l 5
 980 91 l 5
 928 67 l 5
 927 68 928 26.1299 928 0 c 5
 1164 0 l 5
 1164 67 l 5
 1103 91 l 5
 862 750 l 5
 760 750 l 5
 588.982 191.297 l 5
 406 750 l 5
 299 750 l 5
 79 93 l 5
 82 93 39.3496 78.3604 14 69 c 5
 14 0 l 5
 252 0 l 5
 252 69 l 5
 191 91 l 5
 340 612 l 5
 349 612 l 5
 518.572 91.1182 l 5
 510.858 87.8184 476.631 75.9873 455 68 c 5
 455 0 l 5
 713 0 l 5
EndSplineSet
Fore
SplineSet
446 64 m 1
 546 65 l 1
 694 490 l 1
 703 490 l 1
 726 91 l 1
 674 67 l 1
 674 67 674 63 674 56 c 0
 674 42 674 17 674 0 c 1
 890 0 l 1
 890 67 l 1
 829 91 l 1
 786.086 645.516 l 1
 879 680 l 1
 879 750 l 1
 778 750 l 1
 696 750 l 1
 497 191 l 1
 302 750 l 1
 205 750 l 1
 104 750 l 1
 104 680 l 1
 198.525 643.644 l 1
 165 93 l 1
 168 93 125 78 100 69 c 1
 100 0 l 1
 328 0 l 1
 328 69 l 1
 267 91 l 1
 279 497 l 1
 288 497 l 1
 446 64 l 1
EndSplineSet
Validated: 524329
EndChar

StartChar: S
Encoding: 83 83 46
Width: 714
Flags: W
VStem: 114 89<147.25 233> 487 89<517 602.75>
LayerCount: 2
Back
SplineSet
519.373 197.902 m 4
 519.373 286.891 25.9453 347.737 106.032 589.904 c 4
 254.354 743.505 l 5
 365.038 781.018 452.539 781.435 589.639 709.952 c 5
 576.064 516.963 l 5
 487.471 516.963 l 21
 475.253 664.093 l 5
 414.169 688.894 296.435 703.481 212.273 684.516 c 5
 84.6758 416.092 630 475.081 630 203.737 c 5
 634.399 66.7263 524.527 -23.0191 369.92 -23.8398 c 5
 270.826 -26.7021 156.786 3.41699 83.5029 69.5244 c 5
 101.149 146.02 l 21
 155.445 109.549 270.827 84.749 335.984 84.749 c 5
 446.747 84.749 519.373 135.172 519.373 197.902 c 4
373.402 130 m 0
 373.402 191 32 219 91 385 c 0
 215 504 l 1
 296.54 529.714 361 530 462 481 c 1
 452 335 l 1
 372 335 l 17
 363 429 l 1
 318 446 246 456 184 443 c 1
 90 259 477 320 477 134 c 1
 477 34 399 -22 285.402 -22 c 1
 212.401 -23.9619 128.389 -3.31641 74.4023 42 c 1
 87.4023 115 l 17
 127.402 90 212.402 73 260.402 73 c 1
 342 73 373.402 87 373.402 130 c 0
EndSplineSet
Fore
SplineSet
518 65 m 1
 398 58 286 64 215 86 c 1
 203 233 l 1
 114 233 l 1
 100 40 l 1
 237 -31 365 -32 476 6 c 1
 624 160 l 1
 624 431 96 432 212 685 c 1
 296 704 414 689 475 664 c 1
 487 517 l 1
 576 517 l 1
 590 710 l 1
 453 781 365 782 254 744 c 1
 106 590 l 1
 26 348 600 318 518 65 c 1
EndSplineSet
Validated: 41
EndChar

StartChar: C
Encoding: 67 67 47
Width: 682
Flags: W
HStem: -22 119<256.088 478.241> 519 21G<497.102 595.347> 686 85<278.984 461.787>
VStem: 60 112<189.535 491.345> 499 95<519 592.769>
LayerCount: 2
Back
SplineSet
390 335 m 21
 381 429 l 5
 336 446 264 456 202 443 c 5
 192 407 184 338 184 248 c 4
 184 139 180 73 297 73 c 5
 345 73 430 90 470 115 c 13
 483 42 l 5
 429.014 -3.31641 345.001 -23.9619 272 -22 c 5
 165 -22 80.1475 23.2529 80.4023 196 c 4
 80.4775 247.123 89.1328 309.413 109 385 c 5
 233 504 l 5
 314.54 529.714 379 530 480 481 c 5
 470 335 l 5
 390 335 l 21
EndSplineSet
Fore
SplineSet
499 519 m 1
 486 656 l 1
 444 673 378 686 313 686 c 0
 283 686 253 683 226 677 c 1
 212 624 172 503 172 372 c 0
 172 188 196 97 356 97 c 0
 422 97 539 121 594 158 c 1
 611 71 l 1
 540 8 432 -22 335 -22 c 0
 331 -22 326 -22 322 -22 c 0
 176 -22 60 44 60 295 c 0
 60 371 72 461 99 572 c 1
 269 746 l 1
 316 762 359 771 403 771 c 0
 464 771 527 753 607 712 c 1
 594 519 l 1
 499 519 l 1
EndSplineSet
Validated: 1
EndChar

StartChar: Q
Encoding: 81 81 48
Width: 791
Flags: W
HStem: -214 21G<496.667 595> -82 20G<200.258 480.5>
VStem: 61 109<220.017 529.517> 562 103<229.483 538.983>
LayerCount: 2
Fore
SplineSet
208 -62 m 1
 644 -94 l 1
 620 -134 604 -174 586 -214 c 1
 184 -124 l 1
 208 -62 l 1
EndSplineSet
Refer: 18 79 N 1 0 0 1 0 0 2
Validated: 524289
EndChar

StartChar: Y
Encoding: 89 89 49
Width: 739
Flags: W
HStem: 0 67<239 262.625 481.667 505> 684 67<663.644 719>
LayerCount: 2
Back
SplineSet
399 138 m 4
 390 138 l 5
 194 660 l 5
 246 684 l 5
 247 683 246 724.87 246 751 c 5
 20 751 l 5
 20 684 l 5
 81 660 l 5
 348 0 l 5
 435 0 l 5
 694 658 l 5
 691 658 733.65 672.64 759 682 c 5
 759 749 l 5
 521 749 l 5
 521 682 l 5
 582 660 l 5
 399 138 l 4
EndSplineSet
Fore
SplineSet
379 379 m 1
 370 379 l 1
 194 660 l 1
 246 684 l 1
 247 683 246 725 246 751 c 1
 20 751 l 1
 20 684 l 1
 81 660 l 1
 320 292.308 l 1
 320 91 l 1
 239 67 l 1
 239 0 l 1
 505 0 l 1
 505 26 506 68 505 67 c 1
 425 91 l 1
 425 295.816 l 1
 654 658 l 1
 651 658 694 673 719 682 c 1
 719 749 l 1
 481 749 l 1
 481 682 l 1
 542 660 l 1
 379 379 l 1
EndSplineSet
Validated: 524329
EndChar

StartChar: D
Encoding: 68 68 50
Width: 798
Flags: W
HStem: 0 91<266 510.99> 655 96<384 488.589>
VStem: 609 105<228.257 537.253>
LayerCount: 2
Fore
SplineSet
536 22 m 1
 706 226 l 1
 712 274 714 331 714 383 c 0
 714 411 712.993 438 712 462 c 0
 702.938 680.997 559 750 426 751 c 1
 100 750 l 1
 100 682 l 1
 161 658 l 1
 161 91 l 1
 100 67 l 1
 100 0 l 1
 256 0 l 1
 369 1 446 8 536 22 c 1
583 119 m 1
 486 92 406 91 266 91 c 1
 266 657 l 1
 314 657 340.001 655.336 384 655 c 0
 515 654 609 577 609 441 c 0
 609 291 598 179 583 119 c 1
EndSplineSet
Validated: 524297
EndChar

StartChar: P
Encoding: 80 80 51
Width: 786
Flags: W
HStem: 0 21G<100 326> 0 21G<100 326> 216 96<360 494.093> 657 94<266 529.492>
VStem: 162 104<93 657> 589 103<444.112 606.096>
LayerCount: 2
Back
SplineSet
563.427 339.088 m 5
 466 312 406 311 266 311 c 5
 266 657 l 21
 384 658.152 l 5
 518.145 658.533 589.175 634 589.175 530.584 c 5
 589.175 456 578.573 399.058 563.427 339.088 c 5
161.646 94 m 1
 100 67 l 9
 100 0 l 17
 326 0 l 9
 326 67 l 1
 266 91 l 1
 265 220.242 l 1
 373.444 220.074 425.576 227.908 516 242 c 1
 660 418 l 1
 676 452 694.256 483.564 692.356 552.052 c 1
 692.356 716 559.124 749.688 426 750.69 c 1
 100 750 l 9
 100 682 l 17
 161 658 l 1
 161.646 94 l 1
583.427 119.088 m 1
 486 92 406 91 266 91 c 1
 266 657 l 17
 314 657 340.337 655.533 384 655.152 c 2
 515.334 653.709 609.175 576.854 609.175 440.584 c 0
 609.175 290.658 598.573 179.058 583.427 119.088 c 1
536 22 m 1
 705.806 225.985 l 1
 715.067 300.22 715.254 393.564 712.356 462.052 c 0
 703.072 681.533 559.124 749.688 426 750.69 c 1
 100 750 l 9
 100 682 l 17
 161 658 l 1
 162 91 l 1
 100 67 l 9
 100 0 l 17
 256 0.242188 l 1
 368.826 1.02219 446 8 536 22 c 1
EndSplineSet
Fore
SplineSet
266 91 m 1xbc
 326 67 l 1
 326 0 l 1
 100 0 l 1
 100 67 l 1
 162 93 l 1
 161 658 l 1
 100 682 l 1
 100 750 l 1
 426 751 l 1
 559 750 692 716 692 552 c 1
 693 504 676 452 660 418 c 1
 516 242 l 1
 441 227 392 218 334 216 c 1
 360 312 l 1
 428 316 490 324 563 339 c 1
 578 399 589 456 589 531 c 0
 589 634 518 658 384 658 c 1
 266 657 l 1
 266 91 l 1xbc
EndSplineSet
Validated: 33
EndChar

StartChar: R
Encoding: 82 82 52
Width: 814
Flags: W
HStem: 0 21G<100 326 477 714> 0 21G<100 326 477 714> 657 94<266 539.547>
VStem: 161 105<94 657> 589 103<480.438 615.448>
LayerCount: 2
Fore
SplineSet
266 91 m 1xb8
 326 67 l 1
 326 0 l 1
 100 0 l 1
 100 67 l 1
 161 94 l 1
 161 658 l 1
 100 682 l 1
 100 750 l 1
 426 751 l 1
 559 750 690 718 692 572 c 1
 694 526 676 492 660 458 c 1
 516 292 l 1
 515.365 291.873 l 1
 649 91 l 1
 649 91 689 76 714 67 c 1
 714 0 l 1
 477 0 l 1
 477 67 l 1
 540 91 l 1
 417.178 273.907 l 1
 388.855 269.659 362.515 266.983 334 266 c 1
 360 362 l 1
 428 366 490 374 563 389 c 1
 578 449 589 476 589 551 c 0
 588 642 517.995 654.864 384 656 c 2
 266 657 l 1
 266 91 l 1xb8
EndSplineSet
Validated: 524321
EndChar

StartChar: U
Encoding: 85 85 53
Width: 760
Flags: W
HStem: 730 20G<35 261 499 725>
VStem: 94 107<212.595 658> 560 106<229.488 658>
LayerCount: 2
Back
SplineSet
696 462 m 5
 696 400 699 300 690 226 c 5
 507 -3 l 4
 361 -53 107 1 94 297 c 5
 96 658 l 5
 35 682 l 13
 35 750 l 21
 261 750 l 13
 261 723.48 261 682 261 682 c 4
 201 658 l 5
 201 319 l 5
 201 137 367 31 567 99 c 5
 582 159 590 280 590 430 c 5
 590 658 l 5
 529 682 l 13
 529 750 l 21
 755 750 l 13
 755 723.48 755 682 755 682 c 4
 695 658 l 5
 696 462 l 5
EndSplineSet
Fore
SplineSet
666 462 m 2
 666 400 669 300 660 226 c 1
 477 -3 l 1
 331 -53 107 1 94 297 c 1
 96 658 l 1
 35 682 l 1
 35 750 l 1
 261 750 l 1
 261 723.48 261 682 261 682 c 1
 201 658 l 1
 201 319 l 2
 201 136.256 343.325 43.4328 537 99 c 1
 552 159 560 280 560 430 c 2
 560 658 l 1
 499 682 l 1
 499 750 l 1
 725 750 l 1
 725 723.48 725 682 725 682 c 1
 665 658 l 1
 666 462 l 2
EndSplineSet
Validated: 524321
EndChar

StartChar: B
Encoding: 66 66 54
Width: 792
Flags: W
HStem: 0 106.669<266 518.534> 339 94.118<404 527.486> 657 94<345 522.42>
VStem: 550 103<505.202 629.655> 609 103<195.23 314.262>
LayerCount: 2
Back
SplineSet
266 91 m 5
 326 67 l 5
 326 0 l 21
 100 0 l 13
 100 67 l 21
 161 94 l 5
 161 658 l 5
 100 682 l 13
 100 750 l 21
 426 751 l 5
 559 750 690 718 692 572 c 5
 694 526 676 492 660 458 c 5
 516 292 l 5
 441 277 392 268 334 266 c 13
 360 362 l 5
 428 366 490 374 563 389 c 5
 578 449 589 476 589 551 c 5
 588 642 518 656 384 656 c 5
 266 657 l 5
 266 91 l 5
EndSplineSet
Fore
SplineSet
266 106.669 m 1xe8
 266 339 l 1
 404 339 l 2
 538 339 608 345 609 254 c 0
 609 216 600.339 179.56 583 122 c 1
 514.527 107.93 343.113 109.697 266 106.669 c 1xe8
100 0 m 1
 334 0 l 1
 392 2 461 10 536 25 c 1
 680 171 l 1
 692.658 200 712 244 712 275 c 0xe8
 710.888 377.572 648.083 414.365 562.995 427.272 c 1
 623 486 l 1
 639 520 653 552 653 592 c 0xf0
 651 738 520.5 751 387 751 c 2
 100 750 l 1
 100 682 l 1
 161 658 l 1
 161 94 l 1
 100 67 l 1
 100 0 l 1
519.393 431.888 m 1
 495.759 433.488 471.067 433.95 446 434 c 2
 266 433.118 l 1
 266 657 l 1
 345 656 l 1
 479 656 549 662 550 571 c 0xf0
 550.316 507.779 539.038 471.307 519.393 431.888 c 1
EndSplineSet
Validated: 524329
EndChar

StartChar: J
Encoding: 74 74 55
Width: 426
Flags: W
HStem: -250 21G<84.7826 130.556> 730 20G<100 326>
VStem: 162 103<-98 658>
LayerCount: 2
Fore
SplineSet
265 -142 m 1
 100 -250 l 1
 65 -204 l 1
 162 -98 l 1
 161 658 l 1
 100 682 l 1
 100 750 l 1
 326 750 l 1
 326 682 l 1
 266 658 l 1
 265 -142 l 1
EndSplineSet
Validated: 1
EndChar

StartChar: N
Encoding: 78 78 56
Width: 826
Flags: W
HStem: -1 67<322.667 346> 682 68<490 511.292>
LayerCount: 2
Fore
SplineSet
161 658 m 1
 162 90 l 1
 100 66 l 1
 100 -1 l 1
 346 -1 l 1
 346 66 l 1
 266 90 l 1
 266 550 l 1
 271 550 l 1
 602 -20 l 1
 666 -20 l 1
 666 658 l 1
 726 682 l 1
 726 750 l 1
 490 750 l 1
 490 682 l 1
 563 658 l 1
 561.609 263 l 1
 557.58 262.666 l 1
 272 750 l 1
 100 750 l 1
 100 682 l 1
 161 658 l 1
EndSplineSet
Validated: 524297
EndChar

StartChar: X
Encoding: 88 88 57
Width: 739
Flags: W
LayerCount: 2
Back
SplineSet
379 379 m 4
 370 379 l 5
 194 660 l 5
 246 684 l 5
 247 683 246 725 246 751 c 5
 20 751 l 5
 20 684 l 5
 81 660 l 5
 328 280 l 5
 415 280 l 5
 654 658 l 5
 651 658 694 673 719 682 c 5
 719 749 l 5
 481 749 l 5
 481 682 l 5
 542 660 l 5
 379 379 l 4
EndSplineSet
Fore
SplineSet
659 660 m 1
 720 684 l 1
 720 751 l 1
 479 751 l 1
 479 684 l 1
 531 660 l 1
 378.516 457.175 l 1
 224 660 l 1
 276 684 l 1
 276 751 l 1
 20 751 l 1
 20 684 l 1
 81 660 l 1
 297.643 375.625 l 1
 81 89 l 1
 20 65 l 1
 20 -2 l 1
 261 -2 l 1
 261 65 l 1
 209 89 l 1
 361.775 291.443 l 1
 516 89 l 1
 464 65 l 1
 464 -2 l 1
 720 -2 l 1
 720 65 l 1
 659 89 l 1
 443.248 372.206 l 1
 659 660 l 1
EndSplineSet
Validated: 524297
EndChar

StartChar: comma
Encoding: 44 44 58
Width: 333
Flags: W
HStem: -193 21G<150.913 181.892>
VStem: 87 158.312<38.2702 84>
LayerCount: 2
Back
SplineSet
245.312 84.7217 m 5
 245.312 64.4824 l 5
 176.551 -5.51758 l 5
 156.312 -5.51758 l 5
 87 63.7607 l 5
 87 84 l 5
 155.761 154 l 5
 176 154 l 5
 245.312 84.7217 l 5
EndSplineSet
Fore
SplineSet
245.312 84.7217 m 1
 245.312 64.4824 l 1
 176.551 -193 l 1
 156.312 -193 l 1
 87 63.7607 l 1
 87 84 l 1
 155.761 154 l 1
 176 154 l 1
 245.312 84.7217 l 1
EndSplineSet
Validated: 524289
EndChar

StartChar: zero
Encoding: 48 48 59
Width: 596
Flags: W
VStem: 68 99<141.228 349.647> 426 99<147.353 355.772>
LayerCount: 2
Fore
SplineSet
211 506 m 1
 321 540 516 503 525 304 c 0
 527 258 527 195 520 145 c 1
 382 -9 l 1
 272 -43 77 -6 68 193 c 0
 66 239 66 302 73 352 c 1
 211 506 l 1
184 417 m 1
 174 381 167 302 167 212 c 0
 167 103 277 39 409 80 c 1
 419 116 426 195 426 285 c 0
 426 394 316 458 184 417 c 1
EndSplineSet
Validated: 33
EndChar

StartChar: one
Encoding: 49 49 60
Width: 359
Flags: W
LayerCount: 2
Fore
SplineSet
130 392 m 1
 130 274.61 130 91 130 91 c 1
 69 67 l 1
 69 0 l 1
 290 0 l 1
 290 26.1299 291 68 290 67 c 1
 230 91 l 1
 230 91 230 340.49 230 500 c 1
 191 500 l 1
 42 500 l 1
 42 436 l 1
 130 392 l 1
EndSplineSet
Validated: 524329
EndChar

StartChar: four
Encoding: 52 52 61
Width: 616
Flags: W
HStem: 0 62<29 89.3528> 1.02141e-14 89<43.1609 94>
LayerCount: 2
Back
SplineSet
359 304 m 4
 368 304 l 5
 368 -113 l 5
 316 -137 l 5
 316 -137 316 -141 316 -148 c 4
 316 -162 316 -187 316 -204 c 5
 532 -204 l 5
 532 -137 l 5
 471 -113 l 5
 469 501 l 5
 397 501 l 5
 94 86 l 5
 97 86 54 71 29 62 c 5
 29 0 l 5
 532 0 l 5x40
 556 89 l 5
 202 89 l 5x80
 359 304 l 4
EndSplineSet
Fore
SplineSet
368 89 m 1x00
 202 89 l 1
 359 304 l 1
 368 304 l 1
 368 89 l 1x00
368 1.02141e-14 m 1x40
 368 -120 l 1
 472 -120 l 1
 471.42 -7.07767e-16 l 1
 532 0 l 1
 556 89 l 1
 470.99 89 l 1
 469 501 l 1
 463 501 l 1
 397 501 l 1
 294 501 l 1
 294 431 l 1
 335.134 416.266 l 1
 94 86 l 1
 97 86 54 71 29 62 c 1
 29 0 l 1x80
 368 1.02141e-14 l 1x40
EndSplineSet
Validated: 524329
EndChar

StartChar: seven
Encoding: 55 55 62
Width: 519
Flags: W
HStem: -120 21G<84 235.41> 420 80<145 329> 433 67<427.257 479>
LayerCount: 2
Fore
SplineSet
84 -120 m 1xa0
 84 -120 85 -57 84 -56 c 1
 161 -28 l 1
 328 410 l 1
 329 420 l 1
 145 420 l 1xc0
 121 325 l 1
 45 340 l 1
 59 500 l 1
 479 500 l 1
 479 433 l 1
 454 424 421 409 424 409 c 1
 228 -120 l 1
 84 -120 l 1xa0
EndSplineSet
Validated: 33
EndChar

StartChar: eight
Encoding: 56 56 63
Width: 542
Flags: W
HStem: -22 95<153.777 359.285>
VStem: 373 104<90.3934 176.633> 386 82<391.308 505.394>
LayerCount: 2
Back
SplineSet
373 130 m 4
 373 191 32 219 91 385 c 4
 215 504 l 5
 297 530 361 530 462 481 c 5
 452 335 l 5
 372 335 l 21
 363 429 l 5
 318 446 246 456 184 443 c 5
 90 259 477 320 477 134 c 5
 477 34 399 -22 285 -22 c 5
 212 -24 128 -3 74 42 c 5
 87 115 l 21
 127 90 212 73 260 73 c 5
 342 73 373 87 373 130 c 4
EndSplineSet
Fore
SplineSet
373 130 m 0xc0
 373.49 183.934 292.484 221.52 216.264 270.931 c 1
 163.403 234.535 126 190.568 126 150 c 0
 126 74 212 73 260 73 c 0
 342 73 372.609 87.0018 373 130 c 0xc0
293.227 332.237 m 1
 332.942 359.525 386 388.023 386 462 c 0xa0
 386 534 250.112 570.232 184 553 c 1
 148.431 433.314 214.75 379.013 293.227 332.237 c 1
346.295 301.571 m 1
 414.506 261.835 477 218.181 477 134 c 0xc0
 477 34 399 -22 285 -22 c 0
 166 -22 14 12 46 184 c 1
 171.572 302.396 l 1
 112.2 348.767 68.3888 407.433 91 495 c 1
 215 614 l 1
 338 648 468 590 468 466 c 0
 468 434.146 458.106 406.113 442.869 382 c 1
 346.295 301.571 l 1
EndSplineSet
Validated: 524321
EndChar

StartChar: two
Encoding: 50 50 64
Width: 518
Flags: W
HStem: 0 81<214 376> 424 98<231.649 332.162>
VStem: 78 83<312 398> 352.828 122.187<328.811 401.863>
LayerCount: 2
Back
SplineSet
404 289 m 5
 404 289 407 244 399 227 c 5
 146 178 l 5
 142 156 140 152 140 122 c 5
 140 89 156 67 198 67 c 4
 254 67 323 108 404 168 c 13
 404 161 402 150 404 150 c 4
 405 150 325 37 326 38 c 5
 271 4 221 -20 166 -20 c 4
 68 -20 37 36 40 99 c 5
 40 99 196 258 193 261 c 5
 404 289 l 5
59 398 m 5
 59 397 247 523 248 522 c 5
 324 522 485 506 480 306 c 5
 480 260 480 195 480 112 c 5
 480 50 515 83 536 90 c 4
 537 90 538 8 538 8 c 4
 521 -4 489 -18 458 -18 c 4
 410 -18 380 4 380 73 c 4
 380 153 380 270 380 316 c 4
 380 362 322 424 236 424 c 4
 210 424 186 422 161 414 c 4
 160 414 144 312 144 312 c 5
 61 311 l 5
 59 398 l 5
39 64 m 5
 89 92 l 4
 330 410 l 5
 331 420 l 5
 151 420 l 5
 127 325 l 5
 51 340 l 5
 65 500 l 5
 485 500 l 5
 485 433 l 5
 460 424 427 409 430 409 c 5
 195 92 l 5
 195 81 l 5
 385 81 l 5
 411 157 l 5
 487 150 l 5
 477 0 l 5
 39 0 l 5
 39 -26 40 63 39 64 c 5
EndSplineSet
Fore
SplineSet
393 257 m 2
 214 92 l 1
 214 81 l 1
 376 81 l 1
 402 157 l 1
 478 150 l 1
 468 0 l 1
 40 0 l 1
 40 0 41 63 40 64 c 1
 90 92 l 1
 326 312 l 2
 346.812 331.401 352.828 351.282 352.828 368 c 0
 352.828 398 310.162 424 253 424 c 0
 227 424 203 422 178 414 c 0
 177 414 161 312 161 312 c 1
 78 311 l 1
 76 398 l 2
 76 397 264 523 265 522 c 1
 368.669 526.529 474.938 481.007 475.015 398 c 0
 475.051 358.886 451.507 311.447 393 257 c 2
EndSplineSet
Validated: 524321
EndChar

StartChar: six
Encoding: 54 54 65
Width: 580
Flags: W
HStem: -29 21G<241.095 350.049>
VStem: 70 100<124.987 252.526> 410 100<111.144 267.586>
LayerCount: 2
Back
SplineSet
39 751 m 5
 39 686 l 5
 100 642 l 5
 100 427 100 8 100 8 c 5
 344 -29 l 5
 490 52 l 5
 520 103 540 204 540 302 c 4
 540 456 409 510 321 500 c 5
 190 395 l 5
 194 382 199 362 199 362 c 5
 315 409 l 5
 365 409 440 372 440 289 c 4
 440 214 424 110 398 61 c 5
 200 77 l 5
 200 751 l 5
 39 751 l 5
EndSplineSet
Fore
SplineSet
175.965 297.797 m 1
 291 390 l 1
 379 401.642 510 362 510 232 c 0
 510 164 490 102 460 52 c 1
 314 -29 l 1
 168.191 -19.2471 70 42 70 232 c 0
 70 398 204.484 520.689 308 618 c 1
 326 618 l 1
 398 582 l 1
 262.448 443.969 195.213 385.184 175.965 297.797 c 1
170.299 252.526 m 1
 170.099 247.792 170 242.954 170 238 c 0
 170 78 232.832 61 368 61 c 1
 394 110 410 170 410 219 c 0
 410 286 335 299 285 299 c 1
 170.299 252.526 l 1
EndSplineSet
Validated: 524321
EndChar

StartChar: three
Encoding: 51 51 67
Width: 488
Flags: W
HStem: -134.105 111.202<142.685 264.493> 150.74 100.471<142 298.861> 424 98<201.649 302.162>
VStem: 48 83<312 398> 322.828 122.187<337.42 402.022> 357.81 102.19<33.3521 129.753>
LayerCount: 2
Back
SplineSet
-27.3848 -119.105 m 5xf0
 -27.3848 -61.8203 l 5
 24.7695 -38.7354 l 5
 24.7695 443.485 l 5
 -27.3848 464.005 l 5
 -27.3848 522.145 l 5
 218 523 l 6
 332.143 523 443.72 511.885 445.43 387.055 c 5
 445.43 352.855 433.46 325.495 419.78 296.425 c 5
 339.41 217.765 l 5
 331.381 224.377 332.093 232.725 322.31 233.155 c 5
 344.54 274.195 357.68 306.126 357.365 369.1 c 5
 356.51 446.905 296.66 441.775 182.09 441.775 c 5
 114.545 442.63 l 5
 114.545 251.211 l 5
 268.445 251.965 l 6
 386.339 251.729 494.521 240.827 495.875 116.02 c 4xe8
 495.875 89.5146 479.338 51.8945 468.515 27.0996 c 5
 345.395 -97.7305 l 5
 281.27 -110.555 222.275 -117.395 172.685 -119.105 c 5
 -27.3848 -119.105 l 5xf0
114.545 -27.9033 m 5
 180.477 -25.3135 327.036 -26.8252 385.58 -14.7949 c 5
 400.404 34.418 407.81 65.5752 407.81 98.0654 c 4
 406.955 175.87 347.105 170.74 232.535 170.74 c 5
 114.545 170.74 l 5
 114.545 -27.9033 l 5
393 257 m 1
 214 92 l 1
 214 81 l 1
 376 81 l 1
 402 157 l 1
 478 150 l 1
 468 0 l 1
 40 0 l 1
 40 -26 41 63 40 64 c 1
 90 92 l 0
 326 312 l 2
 346.812 331.401 352.828 351.282 352.828 368 c 0
 352.828 398 310.162 424 253 424 c 0
 227 424 203 422 178 414 c 0
 177 414 161 312 161 312 c 1
 78 311 l 1
 76 398 l 1
 76 397 264 523 265 522 c 1
 368.669 526.529 474.938 481.007 475.015 398 c 0
 475.051 358.886 451.507 311.447 393 257 c 1
EndSplineSet
Fore
SplineSet
84.5449 -22.9033 m 1xf4
 172 -31 263.928 -25.8984 335.58 -9.79492 c 1
 348 23 357.81 55.5752 357.81 88.0654 c 0xf4
 357.81 136 316.971 150.74 202.535 150.74 c 2
 142 150.74 l 1
 84.5449 251.211 l 1
 204.445 251.965 l 2
 236.003 251.903 268.97 251.733 300.333 248.835 c 1
 316.567 282.813 322.828 313.265 322.828 368 c 0
 322.828 398 280.162 424 223 424 c 0
 197 424 173 422 148 414 c 0
 147 414 131 312 131 312 c 1
 48 311 l 1
 46 398 l 2
 46 397 234 523 235 522 c 1
 338.669 526.529 444.938 481.007 445.015 398 c 1xf8
 443.277 366.192 420 332 400 296.425 c 1
 339.043 243.496 l 1
 407.231 230.365 460 196.691 460 110 c 0
 460 83.4951 458.823 61.7949 448 37 c 1
 266 -121 l 1
 234 -127 192.275 -133.64 142.685 -134.105 c 1
 84.5449 -22.9033 l 1xf4
EndSplineSet
Validated: 524321
EndChar

StartChar: five
Encoding: 53 53 68
Width: 484
Flags: W
HStem: -134.105 111.202<102.685 244.478> 166 98.543<161.758 314.935>
VStem: 337.81 106.19<35.3237 143.664>
LayerCount: 2
Back
SplineSet
39 64 m 5
 89 92 l 4
 330 410 l 5
 331 420 l 5
 151 420 l 5
 127 325 l 5
 51 340 l 5
 65 500 l 5
 485 500 l 5
 485 433 l 5
 460 424 427 409 430 409 c 5
 195 92 l 5
 195 81 l 5
 385 81 l 5
 411 157 l 5
 487 150 l 5
 477 0 l 5
 39 0 l 5
 39 -26 40 63 39 64 c 5
445.015 398 m 5xf8
 443.277 366.192 420 332 400 296.425 c 5
 309.41 217.765 l 5
 301.381 224.377 302.093 232.725 292.31 233.155 c 5
 314.54 274.195 323.143 305.026 322.828 368 c 5
 322.828 398 280.162 424 223 424 c 4
 197 424 173 422 148 414 c 4
 147 414 131 312 131 312 c 5
 48 311 l 5
 46 398 l 5
 46 397 234 523 235 522 c 5
 338.669 526.529 444.938 481.007 445.015 398 c 5xf8
84.5449 -7.90332 m 5
 172 -16 263.927 -10.8987 335.58 5.20508 c 5
 348 38 357.81 65.5752 357.81 98.0654 c 5
 357.81 146 316.971 150.74 202.535 150.74 c 5
 142 150.74 l 5
 84.5449 251.211 l 5
 204.445 251.965 l 5
 322.378 251.732 460 260 460 120 c 5xf4
 460 93.4951 458.823 76.7949 448 52 c 5
 266 -106 l 5
 234 -112 192.275 -118.64 142.685 -119.105 c 5
 84.5449 -7.90332 l 5
138 420 m 5
EndSplineSet
Fore
SplineSet
62 140.74 m 1
 86 122 l 1
 120 142 190 166 250 166 c 0
 308 166 337.81 136.131 337.81 94.0654 c 0
 337.81 52 328 23 315.58 -9.79492 c 1
 243.928 -25.8984 132 -31 44.5449 -22.9033 c 1
 102.685 -134.105 l 1
 152.275 -133.64 214 -127 246 -121 c 1
 428 37 l 1
 438.823 61.7949 444 92 444 126 c 0
 444 198 393.824 263.495 262 264.543 c 0
 228.177 264.543 193.286 258.942 161 244 c 1
 170 420 l 1
 340 420 l 1
 364 325 l 1
 440 340 l 1
 426 500 l 1
 90 500 l 1
 76 478 l 1
 71 409 l 1
 62 140.74 l 1
EndSplineSet
Validated: 524329
EndChar

StartChar: hyphen
Encoding: 45 45 69
Width: 409
Flags: W
HStem: 208 86
VStem: 70 269
LayerCount: 2
Fore
SplineSet
70 208 m 1
 339 208 l 1
 339 294 l 1
 70 294 l 1
 70 208 l 1
EndSplineSet
Validated: 9
EndChar

StartChar: uni0000
Encoding: 0 0 70
Width: 1000
LayerCount: 2
Back
SplineSet
393 257 m 5
 214 92 l 5
 214 81 l 5
 376 81 l 5
 402 157 l 5
 478 150 l 5
 468 0 l 5
 40 0 l 5
 40 -26 41 63 40 64 c 5
 90 92 l 4
 326 312 l 6
 346.812 331.401 352.828 351.282 352.828 368 c 4
 352.828 398 310.162 424 253 424 c 4
 227 424 203 422 178 414 c 4
 177 414 161 312 161 312 c 5
 78 311 l 5
 76 398 l 5
 76 397 264 523 265 522 c 5
 368.669 526.529 474.938 481.007 475.015 398 c 4
 475.051 358.886 451.507 311.447 393 257 c 5
EndSplineSet
EndChar

StartChar: question
Encoding: 63 63 71
Width: 515
Flags: W
HStem: -5.51758 21G<210.279 270.171> -5.51758 21G<210.279 270.171> 671 98<221.649 340.681>
VStem: 68 83<559 645> 185 104<340.5 387.685> 359 106.015<564.212 652.672>
LayerCount: 2
Back
SplineSet
710 84.7217 m 5
 710 64.4824 l 5
 640.239 -5.51758 l 5
 620 -5.51758 l 5xb980
 551.688 63.7607 l 5
 551.688 84 l 5
 619.449 154 l 5
 639.688 154 l 5
 710 84.7217 l 5
670 242 m 5
 658.394 274.638 646.259 331.456 634 394 c 5
 719.93 451.266 855.015 514 855.015 645 c 5
 855.015 728.007 748.669 773.529 645 769 c 5
 644 770 456 644 456 645 c 5x3d80
 458 558 l 5
 541 559 l 5x3b80
 541 559 557 661 558 661 c 4
 583 669 607 671 633 671 c 5
 713 671 749.564 649.812 749 618 c 5
 749 562.306 699.97 528.397 652 478 c 5
 570 310 l 5
 566 204 l 5
 670 242 l 5
320 84.7217 m 1xbc
 320 64.4824 l 1
 250.239 -5.51758 l 1
 230 -5.51758 l 1
 161.688 63.7607 l 1
 161.688 84 l 1
 229.449 154 l 1
 249.688 154 l 1
 320 84.7217 l 1xbc
168 420 m 1
168 420 m 1
289 260 m 1
 289 271 289 322 289 343 c 1
 294.108 419.391 465.439 484.865 465.015 645 c 1
 465.015 728.007 358.669 773.529 255 769 c 1
 254 770 66 644 66 645 c 1
 68 558 l 1
 151 559 l 1
 151 559 167 661 168 661 c 0
 193 669 217 671 243 671 c 1
 323 671 359.564 649.812 359 618 c 1
 359 528 185 444 185 340.5 c 1
 185.209 315.772 185 245 185 222 c 1
 289 260 l 1
EndSplineSet
Fore
SplineSet
289 260 m 1x3c
 289 271 289 322 289 343 c 1
 294.108 419.391 465.015 484.864 465.015 645 c 0
 465.015 728.007 358.669 773.529 255 769 c 1
 254 770 66 644 66 645 c 2
 68 558 l 1
 151 559 l 1
 151 559 167 661 168 661 c 0
 193 669 217 671 243 671 c 0
 323 671 359.564 649.812 359 618 c 0
 359 528 185 444 185 340.5 c 0
 185.209 315.772 185 245 185 222 c 1
 289 260 l 1x3c
320 84.7217 m 1
 320 64.4824 l 1
 250.239 -5.51758 l 1
 230 -5.51758 l 1xbc
 161.688 63.7607 l 1
 161.688 84 l 1
 229.449 154 l 1
 249.688 154 l 1
 320 84.7217 l 1
EndSplineSet
Validated: 524329
EndChar

StartChar: colon
Encoding: 58 58 72
Width: 359
Flags: W
VStem: 87 158.312<94.4824 114 387.482 407>
LayerCount: 2
Fore
SplineSet
245.312 114.722 m 1
 245.312 94.4824 l 1
 176.551 24.4824 l 1
 156.312 24.4824 l 1
 87 93.7607 l 1
 87 114 l 1
 155.761 184 l 1
 176 184 l 1
 245.312 114.722 l 1
245.312 407.722 m 1
 245.312 387.482 l 1
 176.551 317.482 l 1
 156.312 317.482 l 1
 87 386.761 l 1
 87 407 l 1
 155.761 477 l 1
 176 477 l 1
 245.312 407.722 l 1
EndSplineSet
Validated: 524289
EndChar

StartChar: semicolon
Encoding: 59 59 73
Width: 359
Flags: W
HStem: -193 21G<150.913 181.892>
VStem: 87 158.312<38.2702 84 387.482 407>
LayerCount: 2
Fore
SplineSet
245.312 84.7217 m 1
 245.312 64.4824 l 1
 176.551 -193 l 1
 156.312 -193 l 1
 87 63.7607 l 1
 87 84 l 1
 155.761 154 l 1
 176 154 l 1
 245.312 84.7217 l 1
245.312 407.722 m 1
 245.312 387.482 l 1
 176.551 317.482 l 1
 156.312 317.482 l 1
 87 386.761 l 1
 87 407 l 1
 155.761 477 l 1
 176 477 l 1
 245.312 407.722 l 1
EndSplineSet
Validated: 524289
EndChar

StartChar: exclam
Encoding: 33 33 74
Width: 333
Flags: W
HStem: -5.51758 21G<136.302 196.197> -5.51758 21G<136.302 196.197> 747 20G<134.686 197.453>
VStem: 156.312 20.239<249 289.294>
LayerCount: 2
Fore
SplineSet
245.312 84.7217 m 1xb0
 245.312 64.4824 l 1
 176.551 -5.51758 l 1
 156.312 -5.51758 l 1
 87 63.7607 l 1
 87 84 l 1
 155.761 154 l 1
 176 154 l 1
 245.312 84.7217 l 1xb0
250.312 697.722 m 1
 250.312 677.482 l 1
 176.551 249 l 1
 156.312 249 l 1
 82 676.761 l 1
 82 697 l 1
 155.761 767 l 1
 176 767 l 1
 250.312 697.722 l 1
EndSplineSet
Validated: 524289
EndChar

StartChar: grave
Encoding: 96 96 75
Width: 618
Flags: W
LayerCount: 2
Fore
SplineSet
187.392 646.763 m 1
 201.606 636.267 l 1
 418.104 551.021 l 1
 428.601 565.234 l 1
 284.219 747.079 l 1
 270.005 757.575 l 1
 185.18 745.587 l 1
 174.684 731.373 l 1
 187.392 646.763 l 1
EndSplineSet
Validated: 524297
EndChar

StartChar: asciicircum
Encoding: 94 94 76
Width: 618
Flags: W
LayerCount: 2
Fore
SplineSet
258.781 749.079 m 1
 114.399 565.234 l 1
 124.896 551.021 l 1
 309.699 633.787 l 1
 494.504 551.021 l 1
 505 565.234 l 1
 360.618 749.079 l 1
 258.781 749.079 l 1
EndSplineSet
Validated: 524297
EndChar

StartChar: dotlessi
Encoding: 305 305 93
Width: 359
Flags: W
LayerCount: 2
Fore
SplineSet
130 392 m 1
 130 275 130 91 130 91 c 1
 69 67 l 1
 69 0 l 1
 290 0 l 1
 290 26 291 68 290 67 c 1
 230 91 l 1
 230 91 230 316 230 460 c 1
 191 500 l 1
 69 500 l 1
 69 436 l 1
 130 392 l 1
EndSplineSet
Validated: 41
EndChar

StartChar: dieresis
Encoding: 168 168 96
Width: 523
Flags: W
HStem: 632.279 124.999<156.219 172.584 347.966 364.331>
VStem: 98.6074 323.335
LayerCount: 2
Fore
SplineSet
230.195 702.991 m 1
 230.195 687.132 l 1
 173.041 632.279 l 1
 156.219 632.279 l 1
 98.6074 686.566 l 1
 98.6074 702.426 l 1
 155.761 757.278 l 1
 172.584 757.278 l 1
 230.195 702.991 l 1
421.942 702.991 m 1
 421.942 687.132 l 1
 364.789 632.279 l 1
 347.966 632.279 l 1
 290.354 686.566 l 1
 290.354 702.426 l 1
 347.508 757.278 l 1
 364.331 757.278 l 1
 421.942 702.991 l 1
EndSplineSet
Validated: 524289
EndChar

StartChar: ae
Encoding: 230 230 102
Width: 879
Flags: W
HStem: -20 87<148.497 259.014 524.547 701.505> 191.435 61.947<484.4 555.874> 223.32 62.495<343.857 380> 424 98<214.649 316.478>
VStem: 40 100<75.7988 121.147> 61 83<312 398> 380 104.01<152.653 191.435 285.815 367.724>
LayerCount: 2
Back
SplineSet
533 504 m 4
 679 554 808 506 766 285 c 5
 642 176 l 5
 448 195 l 29
 450 253 l 29
 543 254 689 256 689 256 c 4
 713 415 612 474 502 443 c 5
 492 407 484 338 484 248 c 4
 484 139 480 73 597 73 c 5
 645 73 730 90 770 115 c 13
 783 42 l 5
 729 -3 645 -24 572 -22 c 5
 465 -22 380 23 380 196 c 4
 380 247 389 309 409 385 c 5
 533 504 l 4
404 289 m 5
 404 289 407 244 399 227 c 5
 146 178 l 5
 142 156 140 152 140 122 c 5
 140 89 156 67 198 67 c 4
 254 67 323 108 404 168 c 13
 404 161 402 150 404 150 c 4
 405 150 325 37 326 38 c 5
 271 4 221 -20 166 -20 c 4
 68 -20 37 36 40 99 c 5
 40 99 196 258 193 261 c 5
 404 289 l 5
59 398 m 5
 59 397 247 523 248 522 c 5
 324 522 485 506 480 306 c 5
 480 260 480 195 480 112 c 5
 480 50 515 83 536 90 c 4
 537 90 538 8 538 8 c 4
 521 -4 489 -18 458 -18 c 4
 410 -18 380 4 380 73 c 4
 380 153 380 270 380 316 c 4
 380 362 322 424 236 424 c 4
 210 424 186 422 161 414 c 4
 160 414 144 312 144 312 c 5
 61 311 l 5
 59 398 l 5
EndSplineSet
Fore
SplineSet
484.01 253.382 m 1xd2
 574.754 254.435 689 256 689 256 c 1
 713 415 612 474 502 443 c 1
 492.2 407.721 484.321 340.75 484.01 253.382 c 1xd2
533 504 m 1
 679 554 808 506 766 285 c 1
 642 176 l 1
 484.4 191.435 l 1
 486.746 116.594 501.912 73 597 73 c 0
 645 73 730 90 770 115 c 1
 783 42 l 1
 729 -3 645 -24 572 -22 c 1
 481.817 -22 407.261 9.96678 386.054 123.595 c 1
 326 38 l 1
 271 4 221 -20 166 -20 c 0
 68 -20 37 36 40 99 c 1xda
 40 99 196 258 193 261 c 1
 380 285.815 l 1
 380 316 l 2
 380 362 322 424 236 424 c 0
 210 424 186 422 161 414 c 0
 160 414 144 312 144 312 c 1
 61 311 l 1xb6
 59 398 l 2
 59 397 247 523 248 522 c 1
 304.073 522 406.416 513.29 454.221 428.398 c 1
 533 504 l 1
382.052 152.013 m 1
 380.7 165.663 380 180.305 380 196 c 2
 380 223.32 l 1xba
 146 178 l 1
 142 156 140 152 140 122 c 0
 140 89 156 67 198 67 c 0
 248.872 67 310.473 100.835 382.052 152.013 c 1
EndSplineSet
Validated: 524321
EndChar

StartChar: oe
Encoding: 339 339 103
Width: 923
Flags: W
HStem: -22 95<561.662 750.083> 191.435 61.947<527.4 599.781>
VStem: 68 99<141.228 349.647> 426 101.4<106.992 191.435 253.382 361.21>
LayerCount: 2
Back
SplineSet
525 304 m 4,10,11
EndSplineSet
Fore
SplineSet
527.01 253.382 m 1
 617.754 254.435 734 256 734 256 c 1
 758 415 657 474 547 443 c 1
 537.2 407.721 527.321 340.75 527.01 253.382 c 1
184 417 m 1
 174 381 167 302 167 212 c 0
 167 103 277 39 409 80 c 1
 419 116 426 195 426 285 c 0
 426 394 316 458 184 417 c 1
211 506 m 1
 294.756 531.888 427.791 516.614 490.476 420.006 c 1
 578 504 l 1
 724 554 853 506 811 285 c 1
 687 176 l 1
 527.4 191.435 l 1
 529.746 116.594 546.912 73 642 73 c 0
 690 73 775 90 815 115 c 1
 828 42 l 1
 774 -3 690 -24 617 -22 c 1
 544.403 -22 481.934 -1.28528 449.268 66.0667 c 1
 382 -9 l 1
 272 -43 77 -6 68 193 c 0
 66 239 66 302 73 352 c 1
 211 506 l 1
EndSplineSet
Validated: 524321
EndChar

StartChar: cedilla
Encoding: 184 184 104
Width: 542
Flags: W
HStem: -253.681 74.101<174.25 355.24> -166.82 20G<132.938 152.1 187.73 240> -29.2402 20G<187.73 240>
VStem: 359.58 81.12<-174.114 -126.852>
LayerCount: 2
Back
SplineSet
373 -100 m 4
 373 -39 32 -11 91 155 c 4
 215 274 l 5
 297 300 361 300 462 251 c 5
 452 105 l 5
 372 105 l 21
 363 199 l 5
 318 216 246 226 184 213 c 5
 90 29 477 90 477 -96 c 5
 477 -196 399 -252 285 -252 c 5
 212 -254 128 -233 74 -188 c 5
 87 -115 l 21
 127 -140 212 -157 260 -157 c 5
 342 -157 373 -143 373 -100 c 4
EndSplineSet
Fore
SplineSet
240 -10 m 1
 230.818 -27.9736 273.645 3.5058 271.592 -8 c 0
 255 -101 440.7 -24.1523 440.7 -142.218 c 0
 440.7 -214.781 379.86 -253.681 290.94 -253.681 c 1
 234 -255.24 168.48 -238.86 126.36 -203.761 c 1
 136.5 -146.82 l 1
 167.7 -166.32 234 -179.58 271.44 -179.58 c 0
 335.4 -179.58 359.58 -176.322 359.58 -145.12 c 0
 359.58 -100.856 162 -145 213.46 -9.24023 c 1
 240 -10 l 1
EndSplineSet
Validated: 524321
EndChar

StartChar: quotesingle
Encoding: 39 39 107
Width: 333
Flags: W
HStem: 743 20G<136.115 196.01>
VStem: 87 158.312<647.27 693>
LayerCount: 2
Fore
SplineSet
245.312 693.722 m 1
 245.312 673.482 l 1
 176.551 416 l 1
 156.312 416 l 1
 87 672.761 l 1
 87 693 l 1
 155.761 763 l 1
 176 763 l 1
 245.312 693.722 l 1
EndSplineSet
Validated: 524289
EndChar

StartChar: quotedbl
Encoding: 34 34 108
Width: 521
Flags: W
HStem: 743 20G<136.115 196.01 324.803 384.698>
LayerCount: 2
Fore
SplineSet
245.312 693.722 m 1
 245.312 673.482 l 1
 176.551 416 l 1
 156.312 416 l 1
 87 672.761 l 1
 87 693 l 1
 155.761 763 l 1
 176 763 l 1
 245.312 693.722 l 1
434 693.722 m 1
 434 673.482 l 1
 365.239 416 l 1
 345 416 l 1
 275.688 672.761 l 1
 275.688 693 l 1
 344.449 763 l 1
 364.688 763 l 1
 434 693.722 l 1
EndSplineSet
Validated: 524289
EndChar

